<?xml version="1.0" encoding="utf-8"?>
<!DOCTYPE svg PUBLIC "-//W3C//DTD SVG 1.1//EN" "http://www.w3.org/Graphics/SVG/1.1/DTD/svg11.dtd">
<svg version="1.1" xmlns="http://www.w3.org/2000/svg" xmlns:xlink="http://www.w3.org/1999/xlink" width="32" height="32" viewBox="0 0 32 32">
	<path d="M11.2 14.4h-9.6c-0.883 0-1.6 0.717-1.6 1.6s0.717 1.6 1.6 1.6h9.6c0.883 0 1.6-0.717 1.6-1.6s-0.717-1.6-1.6-1.6zM11.2 20.8h-9.6c-0.883 0-1.6 0.715-1.6 1.6s0.717 1.6 1.6 1.6h9.6c0.883 0 1.6-0.715 1.6-1.6s-0.717-1.6-1.6-1.6zM31.040 14.4h-5.44v-5.44c0-0.883-0.715-0.96-1.6-0.96s-1.6 0.077-1.6 0.96v5.44h-5.28c-0.885 0-0.96 0.717-0.96 1.6s0.077 1.6 0.962 1.6h5.278v5.44c0 0.883 0.715 0.96 1.6 0.96s1.6-0.077 1.6-0.96v-5.44h5.44c0.883 0 0.96-0.717 0.96-1.6s-0.077-1.6-0.96-1.6zM11.2 8h-9.6c-0.883 0-1.6 0.717-1.6 1.6s0.717 1.6 1.6 1.6h9.6c0.883 0 1.6-0.717 1.6-1.6s-0.717-1.6-1.6-1.6z" fill="#000000"></path>
</svg>