<?xml version="1.0" encoding="utf-8"?>
<!DOCTYPE svg PUBLIC "-//W3C//DTD SVG 1.1//EN" "http://www.w3.org/Graphics/SVG/1.1/DTD/svg11.dtd">
<svg version="1.1" xmlns="http://www.w3.org/2000/svg" xmlns:xlink="http://www.w3.org/1999/xlink" width="32" height="32" viewBox="0 0 32 32">
	<path d="M27.149 8c0-1.6-1.592-1.6-1.592-1.6h-19.114c0 0-1.592 0-1.592 1.6v1.6h22.298v-1.6zM22.37 3.2h-12.741c0 0-1.592 0-1.592 1.6h15.926c0-1.6-1.594-1.6-1.594-1.6zM30.333 9.6c-0.942-0.947-0.942-0.947-0.942-0.947v2.547h-26.782v-2.547c0 0 0 0-0.942 0.947s-1.618 1.202-1.237 3.202c0.376 1.992 2.205 12.92 2.475 14.398 0.299 1.622 1.947 1.6 1.947 1.6h22.298c0 0 1.648 0.022 1.947-1.6 0.272-1.478 2.099-12.406 2.477-14.398 0.379-2-0.296-2.254-1.24-3.202zM22.37 18.24c0 0 0 1.6-1.594 1.6h-9.554c-1.592 0-1.592-1.6-1.592-1.6v-3.2h2.23v2.56h8.277v-2.56h2.234v3.2z" fill="#000000"></path>
</svg>