<?xml version="1.0" encoding="utf-8"?>
<!DOCTYPE svg PUBLIC "-//W3C//DTD SVG 1.1//EN" "http://www.w3.org/Graphics/SVG/1.1/DTD/svg11.dtd">
<svg version="1.1" xmlns="http://www.w3.org/2000/svg" xmlns:xlink="http://www.w3.org/1999/xlink" width="32" height="32" viewBox="0 0 32 32">
	<path d="M28.995 5.867c-0.474-0.41-3.050-2.36-3.531-2.774s-1.234-0.533-1.765-0.533h-15.398c-0.53 0-1.283 0.117-1.763 0.533-0.482 0.416-3.058 2.366-3.531 2.774s-0.869 1.026-0.742 1.906c0.126 0.88 3.099 20.757 3.099 20.757 0.166 0.501 0.736 0.91 1.267 0.91h18.741c0.531 0 1.101-0.411 1.267-0.91 0 0 2.971-19.877 3.099-20.757 0.125-0.88-0.269-1.496-0.742-1.906zM16 19.789c-5.197 0-6.309-7.355-6.539-8.87h2.939c0.443 2.211 1.45 5.99 3.6 5.99s3.158-3.779 3.602-5.99h2.938c-0.23 1.515-1.342 8.87-6.539 8.87zM4.741 8l3.53-3.68h15.459l3.53 3.68h-22.518z" fill="#000000"></path>
</svg>