<?xml version="1.0" encoding="utf-8"?>
<!DOCTYPE svg PUBLIC "-//W3C//DTD SVG 1.1//EN" "http://www.w3.org/Graphics/SVG/1.1/DTD/svg11.dtd">
<svg version="1.1" xmlns="http://www.w3.org/2000/svg" xmlns:xlink="http://www.w3.org/1999/xlink" width="32" height="32" viewBox="0 0 32 32">
	<path d="M24.653 16c0-4.426 2.043-6.912 3.643-6.912 0.582 0 2.102 0 2.102 0-1.067-1.694-1.95-2.688-5.85-2.688h-16.013c-5.974 0-8.536 5.506-8.536 9.6s2.562 9.6 8.536 9.6h16.013c3.901 0 4.782-0.994 5.851-2.69 0 0-0.502 0-2.102 0s-3.645-2.486-3.645-6.91zM20.301 18.87c-0.261 0.403-1.080 0.026-1.080 0.026l-4.731-2.138c0 0-0.422 1.070-0.749 1.824s-0.578 1.608-1.934 0.653c-1.358-0.955-5.728-5.2-5.728-5.2s-0.554-0.453-0.277-0.88c0.261-0.403 1.080-0.026 1.080-0.026l4.731 2.138c0 0 0.422-1.069 0.749-1.824 0.326-0.752 0.578-1.608 1.934-0.653 1.358 0.955 5.73 5.202 5.73 5.202s0.55 0.451 0.275 0.878zM30.2 12.683h-1.197c-0.896 0-1.77 1.208-1.77 3.168s0.875 3.166 1.77 3.166h1.197c0.894 0 1.8-1.206 1.8-3.166s-0.906-3.168-1.8-3.168z" fill="#000000"></path>
</svg>