<?xml version="1.0" encoding="utf-8"?>
<!DOCTYPE svg PUBLIC "-//W3C//DTD SVG 1.1//EN" "http://www.w3.org/Graphics/SVG/1.1/DTD/svg11.dtd">
<svg version="1.1" xmlns="http://www.w3.org/2000/svg" xmlns:xlink="http://www.w3.org/1999/xlink" width="32" height="32" viewBox="0 0 32 32">
	<path d="M12.914 14.883c0 0 3.029-0.235 3.029-3.936s-2.478-5.507-5.616-5.507h-10.326v20.682h10.326c0 0 6.302 0.206 6.302-6.102 0.002 0 0.275-5.136-3.715-5.136zM4.55 9.115h5.776c0 0 1.403 0 1.403 2.152s-0.826 2.464-1.763 2.464h-5.416v-4.616zM10.034 22.446h-5.483v-5.528h5.776c0 0 2.093-0.029 2.093 2.84 0 2.419-1.563 2.67-2.386 2.688zM25.037 10.702c-7.632 0-7.626 7.944-7.626 7.944s-0.523 7.906 7.626 7.906c0 0 6.79 0.406 6.79-5.501h-3.491c0 0 0.115 2.226-3.182 2.226 0 0-3.493 0.243-3.493-3.597h10.283c0.002 0.002 1.126-8.978-6.907-8.978zM28.142 16.92h-6.518c0 0 0.427-3.189 3.493-3.189 3.062 0 3.026 3.189 3.026 3.189zM28.957 6.658h-8.189v2.547h8.187v-2.547z" fill="#000000"></path>
</svg>