<?xml version="1.0" encoding="utf-8"?>
<!DOCTYPE svg PUBLIC "-//W3C//DTD SVG 1.1//EN" "http://www.w3.org/Graphics/SVG/1.1/DTD/svg11.dtd">
<svg version="1.1" xmlns="http://www.w3.org/2000/svg" xmlns:xlink="http://www.w3.org/1999/xlink" width="32" height="32" viewBox="0 0 32 32">
	<path d="M23.44 13.621c-3.648-7.851-5.544-10.834-11.506-10.709-2.123 0.043-1.613-1.538-3.232-0.938-1.618 0.598-0.229 1.477-1.885 2.835-4.643 3.811-4.216 7.338-2.062 15.744 0.909 3.539-2.187 3.714-0.963 7.146 0.894 2.501 7.486 3.55 14.442 0.968 6.955-2.579 11.344-7.701 10.45-10.205-1.224-3.43-3.706-1.536-5.243-4.842zM17.478 26.554c-6.21 2.304-11.315 0.949-11.531 0.347-0.371-1.038 2.005-4.506 9.106-7.141s11.064-1.658 11.478-0.498c0.245 0.685-2.84 4.986-9.053 7.291zM15.483 20.963c-3.248 1.205-5.504 2.582-6.965 3.824 1.029 0.934 2.954 1.162 4.874 0.45 2.443-0.907 3.944-2.989 3.35-4.648-0.006-0.021-0.018-0.038-0.026-0.058-0.4 0.13-0.811 0.274-1.234 0.432z" fill="#000000"></path>
</svg>