<?xml version="1.0" encoding="utf-8"?>
<!DOCTYPE svg PUBLIC "-//W3C//DTD SVG 1.1//EN" "http://www.w3.org/Graphics/SVG/1.1/DTD/svg11.dtd">
<svg version="1.1" xmlns="http://www.w3.org/2000/svg" xmlns:xlink="http://www.w3.org/1999/xlink" width="32" height="32" viewBox="0 0 32 32">
	<path d="M16 0.64c-8.483 0-15.36 6.877-15.36 15.36s6.877 15.36 15.36 15.36c8.485 0 15.36-6.877 15.36-15.36s-6.875-15.36-15.36-15.36zM24.266 7.738l-0.003-0.003c0 0.002 0.003 0.003 0.003 0.003zM4.314 16c0-6.454 5.232-11.686 11.686-11.686 2.806 0 5.382 0.989 7.398 2.637l-16.446 16.445c-1.65-2.014-2.638-4.589-2.638-7.395zM7.734 24.262l0.003 0.003c-0.002-0.002-0.002-0.002-0.003-0.003zM16 27.688c-2.806 0-5.381-0.99-7.395-2.638l16.442-16.445c1.65 2.014 2.64 4.589 2.64 7.395 0.002 6.454-5.234 11.688-11.686 11.688z" fill="#000000"></path>
</svg>