<?xml version="1.0" encoding="utf-8"?>
<!DOCTYPE svg PUBLIC "-//W3C//DTD SVG 1.1//EN" "http://www.w3.org/Graphics/SVG/1.1/DTD/svg11.dtd">
<svg version="1.1" xmlns="http://www.w3.org/2000/svg" xmlns:xlink="http://www.w3.org/1999/xlink" width="32" height="32" viewBox="0 0 32 32">
	<path d="M26.637 8.229l-14.397-7.422c-1.973-1.038-5.861 0.968-6.978 2.734-0.498 0.79-0.462 1.36-0.462 1.683l0.178 16.76c0.011 0.357 0.461 0.835 0.843 1.072 0.798 0.49 12.896 8.040 13.237 8.254 0.184 0.115 0.403 0.168 0.618 0.168 0.182 0 0.366-0.040 0.533-0.123 0.365-0.179 0.592-0.525 0.592-0.904v-17.602c0-0.366-0.214-0.704-0.563-0.888l-13.085-7.306c0.147-0.288 0.73-0.896 1.8-1.456 1.128-0.592 1.971-0.368 2.165-0.293 0 0 12.56 6.722 12.944 6.922 0.382 0.2 0.39 0.23 0.39 0.571 0 0.342 0 16.704 0 16.704 0 0.834 0.845 1.174 1.467 1.174 0.619 0 1.282-0.608 1.282-1.174v-17.987c0-0.366-0.216-0.706-0.563-0.888z" fill="#000000"></path>
</svg>