<?xml version="1.0" encoding="utf-8"?>
<!DOCTYPE svg PUBLIC "-//W3C//DTD SVG 1.1//EN" "http://www.w3.org/Graphics/SVG/1.1/DTD/svg11.dtd">
<svg version="1.1" xmlns="http://www.w3.org/2000/svg" xmlns:xlink="http://www.w3.org/1999/xlink" width="32" height="32" viewBox="0 0 32 32">
	<path d="M12.48 19.634l-6.4-2.562v2.166l6.4 2.562v-2.166zM12.48 12.986l-6.4-2.56v2.166l6.4 2.56v-2.166zM29.698 1.875c-0.438-0.298-0.998-0.358-1.491-0.162l-12.206 4.883-12.206-4.883c-0.493-0.197-1.051-0.136-1.491 0.162-0.438 0.298-0.702 0.794-0.702 1.325v20.48c0 0.654 0.398 1.242 1.005 1.486l12.773 5.109c0 0 0.262 0.085 0.31 0.094 0.104 0.019 0.208 0.030 0.312 0.030 0.102 0 0.208-0.011 0.31-0.032 0.048-0.010 0.31-0.096 0.31-0.096l12.771-5.107c0.61-0.243 1.008-0.83 1.008-1.485v-20.48c0-0.531-0.264-1.027-0.702-1.325zM14.4 27.126l-10.24-4.096v-17.933l10.24 4.098v17.931zM27.84 23.032l-10.24 4.096v-17.933l10.24-4.098v17.934zM25.92 17.072l-6.402 2.562v2.166l6.402-2.562v-2.166zM25.92 10.426l-6.402 2.56v2.166l6.402-2.56v-2.166z" fill="#000000"></path>
</svg>