<?xml version="1.0" encoding="utf-8"?>
<!DOCTYPE svg PUBLIC "-//W3C//DTD SVG 1.1//EN" "http://www.w3.org/Graphics/SVG/1.1/DTD/svg11.dtd">
<svg version="1.1" xmlns="http://www.w3.org/2000/svg" xmlns:xlink="http://www.w3.org/1999/xlink" width="32" height="32" viewBox="0 0 32 32">
	<path d="M14.56 17.603h2.88v3.2h14.56c0 0-0.237-7.133-0.32-9.366-0.078-2.122-0.837-3.434-3.2-3.434h-5.133c-0.795-1.499-1.651-3.112-1.914-3.608-0.53-0.998-0.71-1.192-1.888-1.192h-7.091c-1.178 0-1.358 0.194-1.888 1.192-0.262 0.496-1.118 2.109-1.914 3.608h-5.133c-2.363 0-3.112 1.312-3.2 3.434s-0.32 9.366-0.32 9.366h14.56v-3.2zM12.24 6.267c0.366-0.691 0.493-0.826 1.306-0.826h4.907c0.816 0 0.941 0.134 1.306 0.826 0.138 0.259 0.509 0.96 0.922 1.734h-9.36c0.411-0.773 0.782-1.474 0.92-1.734zM17.44 25.603h-2.88v-3.2h-13.76c0 0 0.2 2.877 0.32 5.315 0.050 1.013 0.347 2.685 2.878 2.685h24.003c2.531 0 2.822-1.674 2.878-2.685 0.139-2.507 0.32-5.315 0.32-5.315h-13.76v3.2z" fill="#000000"></path>
</svg>