<?xml version="1.0" encoding="utf-8"?>
<!DOCTYPE svg PUBLIC "-//W3C//DTD SVG 1.1//EN" "http://www.w3.org/Graphics/SVG/1.1/DTD/svg11.dtd">
<svg version="1.1" xmlns="http://www.w3.org/2000/svg" xmlns:xlink="http://www.w3.org/1999/xlink" width="32" height="32" viewBox="0 0 32 32">
	<path d="M16 12.8c-2.65 0-4.8 2.15-4.8 4.8 0 2.651 2.15 4.8 4.8 4.8 2.651 0 4.8-2.149 4.8-4.8 0-2.65-2.149-4.8-4.8-4.8zM28.8 8h-3.838c-0.528 0-1.098-0.41-1.264-0.91l-0.992-2.978c-0.17-0.502-0.738-0.912-1.266-0.912h-10.88c-0.528 0-1.098 0.41-1.262 0.91l-0.995 2.979c-0.166 0.501-0.734 0.91-1.262 0.91h-3.84c-1.76 0-3.2 1.44-3.2 3.2v14.4c0 1.76 1.44 3.2 3.2 3.2h25.6c1.762 0 3.2-1.44 3.2-3.2v-14.4c0-1.76-1.438-3.2-3.2-3.2zM16 25.6c-4.419 0-8-3.581-8-8 0-4.418 3.581-8 8-8 4.418 0 8 3.582 8 8 0 4.419-3.582 8-8 8zM27.68 13.437c-0.618 0-1.118-0.501-1.118-1.12s0.501-1.12 1.118-1.12c0.619 0 1.12 0.501 1.12 1.12s-0.501 1.12-1.12 1.12z" fill="#000000"></path>
</svg>