<?xml version="1.0" encoding="utf-8"?>
<!DOCTYPE svg PUBLIC "-//W3C//DTD SVG 1.1//EN" "http://www.w3.org/Graphics/SVG/1.1/DTD/svg11.dtd">
<svg version="1.1" xmlns="http://www.w3.org/2000/svg" xmlns:xlink="http://www.w3.org/1999/xlink" width="32" height="32" viewBox="0 0 32 32">
	<path d="M6.4 27.2c0 1.766 1.434 3.2 3.2 3.2 1.768 0 3.2-1.434 3.2-3.2s-1.432-3.2-3.2-3.2c-1.766 0-3.2 1.434-3.2 3.2zM22.4 27.2c0 1.766 1.434 3.2 3.2 3.2 1.768 0 3.2-1.434 3.2-3.2s-1.432-3.2-3.2-3.2c-1.766 0-3.2 1.434-3.2 3.2zM12.075 19.635l17.71-5.059c0.338-0.098 0.614-0.464 0.614-0.816v-8.8h-22.56v-2.72c0-0.352-0.286-0.64-0.64-0.64h-4.96c-0.352 0-0.64 0.288-0.64 0.64v2.56h3.109l3.149 14.491 0.304 1.509v2.4c0 0.352 0.288 0.64 0.638 0.64h20.962c0.35 0 0.638-0.288 0.638-0.64v-2.4h-17.997c-1.838 0-1.877-0.72-0.328-1.165z" fill="#000000"></path>
</svg>