<?xml version="1.0" encoding="utf-8"?>
<!DOCTYPE svg PUBLIC "-//W3C//DTD SVG 1.1//EN" "http://www.w3.org/Graphics/SVG/1.1/DTD/svg11.dtd">
<svg version="1.1" xmlns="http://www.w3.org/2000/svg" xmlns:xlink="http://www.w3.org/1999/xlink" width="32" height="32" viewBox="0 0 32 32">
	<path d="M16 10.376c1.427 0 2.141-0.712 2.141-2.138 0-1.445-0.714-2.166-2.141-2.166s-2.139 0.722-2.139 2.166c0 1.426 0.712 2.138 2.139 2.138zM19.155 11.202h-6.309c-0.275 0-0.507 0.096-0.701 0.288s-0.288 0.426-0.288 0.699v6.282h1.755v7.461h4.771v-7.461h1.757v-6.283c0-0.274-0.101-0.506-0.301-0.699-0.202-0.19-0.429-0.286-0.685-0.286zM16 0.64c-8.483 0-15.36 6.877-15.36 15.36s6.877 15.36 15.36 15.36 15.36-6.877 15.36-15.36-6.877-15.36-15.36-15.36zM16 28.544c-6.928 0-12.544-5.616-12.544-12.544s5.616-12.544 12.544-12.544 12.544 5.616 12.544 12.544-5.616 12.544-12.544 12.544z" fill="#000000"></path>
</svg>