<?xml version="1.0" encoding="utf-8"?>
<!DOCTYPE svg PUBLIC "-//W3C//DTD SVG 1.1//EN" "http://www.w3.org/Graphics/SVG/1.1/DTD/svg11.dtd">
<svg version="1.1" xmlns="http://www.w3.org/2000/svg" xmlns:xlink="http://www.w3.org/1999/xlink" width="32" height="32" viewBox="0 0 32 32">
	<path d="M16 0.64c-8.483 0-15.36 6.877-15.36 15.36s6.877 15.36 15.36 15.36 15.36-6.877 15.36-15.36-6.877-15.36-15.36-15.36zM4.152 11.882l7.792 3.49 2.44 1.069 1.811 0.824 1.482 0.632c0.275 0.237 0.413 0.547 0.413 0.931 0 0.55-0.189 0.942-0.563 1.179s-0.829 0.357-1.358 0.357c-1.282 0-2.424-0.466-3.43-1.398l-2.11 2.139c1.408 1.206 2.963 1.821 4.662 1.837v2.36h1.782v-2.36c1.059-0.091 1.979-0.442 2.757-1.056 0.776-0.613 1.267-1.402 1.467-2.371l5.694 2.536c-2.134 3.87-6.256 6.494-10.99 6.494-6.928 0-12.544-5.616-12.544-12.544 0-1.443 0.246-2.829 0.696-4.118zM20.338 15.781l-2.469-1.098-3.293-1.48c-0.091-0.128-0.136-0.256-0.136-0.384 0-0.438 0.187-0.75 0.563-0.933 0.373-0.182 0.798-0.275 1.275-0.275 0.896 0 1.773 0.302 2.634 0.906l2.003-2.058c-1.154-0.878-2.434-1.354-3.84-1.427v-2.357h-1.784v2.358c-0.952 0.054-1.784 0.326-2.498 0.808-0.712 0.486-1.197 1.13-1.453 1.934l-5.848-2.624c2.238-3.427 6.107-5.696 10.507-5.696 6.928 0 12.544 5.616 12.544 12.544 0 1.125-0.15 2.214-0.429 3.25l-7.778-3.469z" fill="#000000"></path>
</svg>