<?xml version="1.0" encoding="utf-8"?>
<!DOCTYPE svg PUBLIC "-//W3C//DTD SVG 1.1//EN" "http://www.w3.org/Graphics/SVG/1.1/DTD/svg11.dtd">
<svg version="1.1" xmlns="http://www.w3.org/2000/svg" xmlns:xlink="http://www.w3.org/1999/xlink" width="32" height="32" viewBox="0 0 32 32">
	<path d="M16 0.64c-8.483 0-15.36 6.877-15.36 15.36s6.877 15.36 15.36 15.36 15.36-6.877 15.36-15.36-6.877-15.36-15.36-15.36zM4.016 12.288l7.819 3.482h-1.731v2.392h3.597l0.352 0.728v1.16h-3.949v2.39h3.949v3.472h3.822v-3.472h3.976v-2.21l4.923 2.192c-2.189 3.666-6.195 6.122-10.774 6.122-6.928 0-12.544-5.616-12.544-12.544 0-1.293 0.195-2.539 0.56-3.712zM17.877 20.048v-1.16l0.179-0.349 3.389 1.507h-3.568zM21.851 16.869v-1.101h-2.39l3.901-7.184h-4.077l-2.685 5.946-1.427-0.634-2.453-5.312h-4.077l1.693 3.157-5.059-2.251c2.202-3.618 6.179-6.034 10.723-6.034 6.928 0 12.544 5.616 12.544 12.544 0 1.256-0.187 2.467-0.53 3.611l-6.163-2.742z" fill="#000000"></path>
</svg>