<?xml version="1.0" encoding="utf-8"?>
<!DOCTYPE svg PUBLIC "-//W3C//DTD SVG 1.1//EN" "http://www.w3.org/Graphics/SVG/1.1/DTD/svg11.dtd">
<svg version="1.1" xmlns="http://www.w3.org/2000/svg" xmlns:xlink="http://www.w3.org/1999/xlink" width="32" height="32" viewBox="0 0 32 32">
	<path d="M16 0.64c-8.483 0-15.36 6.877-15.36 15.36s6.877 15.36 15.36 15.36 15.36-6.877 15.36-15.36-6.877-15.36-15.36-15.36zM4.133 11.936l4.026 1.781h-0.294v1.826h1.44c0 0.258-0.026 0.514-0.026 0.771v0.437h-1.414v1.826h1.672c0.232 1.365 0.746 2.469 1.438 3.344 1.44 1.902 3.755 2.931 6.275 2.931 1.645 0 3.136-0.49 4.011-0.978l-0.618-2.853c-0.541 0.283-1.749 0.667-2.931 0.667-1.286 0-2.494-0.384-3.317-1.31-0.386-0.435-0.669-1.029-0.846-1.8h5.589l7.85 3.475c-2.136 3.869-6.254 6.491-10.987 6.491-6.928 0-12.544-5.616-12.544-12.544 0-1.424 0.242-2.789 0.677-4.064zM19.771 15.542h0.23v-1.826h-4.355l-1.766-0.782c0.152-0.342 0.331-0.648 0.542-0.888 0.797-0.978 1.928-1.39 3.162-1.39 1.131 0 2.184 0.334 2.853 0.619l0.72-2.933c-0.926-0.411-2.29-0.77-3.856-0.77-2.418 0-4.474 0.976-5.939 2.622-0.326 0.376-0.608 0.798-0.864 1.243l-5.040-2.23c2.234-3.459 6.118-5.752 10.542-5.752 6.928 0 12.544 5.616 12.544 12.544 0 1.12-0.149 2.205-0.424 3.237l-8.349-3.694z" fill="#000000"></path>
</svg>