<?xml version="1.0" encoding="utf-8"?>
<!DOCTYPE svg PUBLIC "-//W3C//DTD SVG 1.1//EN" "http://www.w3.org/Graphics/SVG/1.1/DTD/svg11.dtd">
<svg version="1.1" xmlns="http://www.w3.org/2000/svg" xmlns:xlink="http://www.w3.org/1999/xlink" width="32" height="32" viewBox="0 0 32 32">
	<path d="M16 0.64c-8.483 0-15.36 6.877-15.36 15.36s6.877 15.36 15.36 15.36 15.36-6.877 15.36-15.36-6.877-15.36-15.36-15.36zM4.133 11.936l4.942 2.186c-0.125 0.635-0.192 1.298-0.192 1.978 0 6.133 4.576 7.859 7.456 7.859 1.699 0 3.166-0.547 4.317-1.352 0.219-0.157 0.418-0.314 0.6-0.475l-2.238-2.72c-0.066 0.075-0.134 0.146-0.205 0.21-0.872 0.827-1.829 0.827-2.042 0.827-2.322 0-3.304-2.426-3.334-4.395l13.554 5.998c-2.136 3.87-6.256 6.493-10.989 6.493-6.928 0-12.544-5.616-12.544-12.544-0.002-1.424 0.24-2.789 0.675-4.064zM14.099 13.034c0.502-0.909 1.334-1.626 2.526-1.626 0.693 0 1.24 0.23 1.672 0.518 0.179 0.13 0.334 0.259 0.466 0.389l2.501-2.573c-1.68-1.445-3.589-1.702-4.838-1.702-2.934 0-5.061 1.314-6.286 3.24l-4.682-2.074c2.234-3.458 6.118-5.75 10.542-5.75 6.928 0 12.544 5.616 12.544 12.544 0 1.12-0.149 2.205-0.424 3.235l-14.021-6.202z" fill="#000000"></path>
</svg>