<?xml version="1.0" encoding="utf-8"?>
<!DOCTYPE svg PUBLIC "-//W3C//DTD SVG 1.1//EN" "http://www.w3.org/Graphics/SVG/1.1/DTD/svg11.dtd">
<svg version="1.1" xmlns="http://www.w3.org/2000/svg" xmlns:xlink="http://www.w3.org/1999/xlink" width="32" height="32" viewBox="0 0 32 32">
	<path d="M22.282 11.613h-3.347v-3.347c0-0.237-0.082-0.438-0.246-0.605-0.165-0.163-0.366-0.246-0.603-0.246h-8.448c-0.219 0.037-0.403 0.134-0.547 0.288-0.147 0.155-0.221 0.342-0.221 0.563v11.299c0 0.237 0.083 0.438 0.246 0.603s0.366 0.246 0.603 0.246h3.347v3.347c0 0.237 0.082 0.438 0.246 0.603s0.366 0.246 0.603 0.246h8.366c0.237 0 0.438-0.083 0.603-0.246s0.246-0.366 0.246-0.603v-11.299c0-0.237-0.083-0.438-0.246-0.603-0.165-0.165-0.366-0.246-0.603-0.246zM13.806 11.613c-0.202 0.035-0.374 0.133-0.522 0.288s-0.219 0.341-0.219 0.562v6.28h-2.523v-9.627h6.72v2.498h-3.456zM21.458 22.912h-6.72v-9.627h6.72v9.627zM16 0.64c-8.483 0-15.36 6.877-15.36 15.36s6.877 15.36 15.36 15.36 15.36-6.877 15.36-15.36-6.877-15.36-15.36-15.36zM16 28.544c-6.928 0-12.544-5.616-12.544-12.544s5.616-12.544 12.544-12.544 12.544 5.616 12.544 12.544-5.616 12.544-12.544 12.544z" fill="#000000"></path>
</svg>