<?xml version="1.0" encoding="utf-8"?>
<!DOCTYPE svg PUBLIC "-//W3C//DTD SVG 1.1//EN" "http://www.w3.org/Graphics/SVG/1.1/DTD/svg11.dtd">
<svg version="1.1" xmlns="http://www.w3.org/2000/svg" xmlns:xlink="http://www.w3.org/1999/xlink" width="32" height="32" viewBox="0 0 32 32">
	<path d="M15.92 7.909c-1.757 0-3.246 0.515-4.472 1.549s-1.984 2.493-2.277 4.374h-1.205l3.043 3.045 3.045-3.045h-1.125c0.256-1.81 1.408-2.714 3.456-2.714 1.133 0 2.003 0.424 2.605 1.275 0.605 0.85 0.906 2.090 0.906 3.715 0 1.555-0.33 2.798-0.987 3.73-0.659 0.933-1.528 1.4-2.605 1.4-2.16 0-3.285-0.933-3.374-2.798h-3.867c0.256 1.92 1.014 3.402 2.277 4.443 1.261 1.042 2.762 1.563 4.498 1.563 2.362 0 4.28-0.781 5.762-2.344 1.482-1.565 2.222-3.525 2.222-5.885 0-2.432-0.714-4.426-2.139-5.978-1.429-1.554-3.349-2.331-5.762-2.331zM16 0.64c-8.483 0-15.36 6.877-15.36 15.36s6.877 15.36 15.36 15.36 15.36-6.877 15.36-15.36-6.877-15.36-15.36-15.36zM16 28.544c-6.928 0-12.544-5.616-12.544-12.544s5.616-12.544 12.544-12.544 12.544 5.616 12.544 12.544-5.616 12.544-12.544 12.544z" fill="#000000"></path>
</svg>