<?xml version="1.0" encoding="utf-8"?>
<!DOCTYPE svg PUBLIC "-//W3C//DTD SVG 1.1//EN" "http://www.w3.org/Graphics/SVG/1.1/DTD/svg11.dtd">
<svg version="1.1" xmlns="http://www.w3.org/2000/svg" xmlns:xlink="http://www.w3.org/1999/xlink" width="32" height="32" viewBox="0 0 32 32">
	<path d="M26.038 16.275l-3.045-1.264v-3.811l-9.408-3.896-4.168 1.837v4.339l0.026 0.024-3.675 1.536v3.95l3.922 1.699 3.978-1.645 0.274 0.109 8.037 3.32 0.19 0.054 0.166-0.054 3.73-1.59 0.274-0.139v-4.334l-0.299-0.134zM21.677 21.32l-0.027-0.026v0.026l-7.048-2.904v-2.8l7.048 2.885v0.109h0.027v2.71zM22.144 17.755l-2.222-0.955 2.414-1.021 2.277 0.962-2.469 1.014zM25.379 20.115l-2.742 1.179v-2.686l2.742-1.155v2.662zM16 0.64c-8.483 0-15.36 6.877-15.36 15.36s6.877 15.36 15.36 15.36 15.36-6.877 15.36-15.36-6.877-15.36-15.36-15.36zM16 28.544c-6.928 0-12.544-5.616-12.544-12.544s5.616-12.544 12.544-12.544 12.544 5.616 12.544 12.544-5.616 12.544-12.544 12.544z" fill="#000000"></path>
</svg>