<?xml version="1.0" encoding="utf-8"?>
<!DOCTYPE svg PUBLIC "-//W3C//DTD SVG 1.1//EN" "http://www.w3.org/Graphics/SVG/1.1/DTD/svg11.dtd">
<svg version="1.1" xmlns="http://www.w3.org/2000/svg" xmlns:xlink="http://www.w3.org/1999/xlink" width="32" height="32" viewBox="0 0 32 32">
	<path d="M16 7.16c-5.070 0-6.346 4.784-6.346 8.84s1.275 8.842 6.346 8.842c5.072 0 6.347-4.786 6.347-8.842s-1.275-8.84-6.347-8.84zM13.269 16c0-1.786 0.123-5.507 2.731-5.507 0.206 0 0.394 0.034 0.57 0.077 0.366 0.314 0.544 0.749 0.194 1.355l-3.376 6.206c-0.104-0.786-0.118-1.558-0.118-2.131zM16 21.506c-0.205 0-0.394-0.021-0.568-0.064-0.034-0.010-0.066-0.021-0.099-0.032-0.053-0.018-0.11-0.034-0.162-0.054-0.579-0.246-0.946-0.694-0.419-1.485l3.774-6.518c0.179 0.954 0.205 1.949 0.205 2.646 0.002 1.789-0.123 5.507-2.731 5.507zM16 0.64c-8.483 0-15.36 6.877-15.36 15.36s6.877 15.36 15.36 15.36 15.36-6.877 15.36-15.36-6.877-15.36-15.36-15.36zM16 28.544c-6.928 0-12.544-5.616-12.544-12.544s5.616-12.544 12.544-12.544 12.544 5.616 12.544 12.544-5.616 12.544-12.544 12.544z" fill="#000000"></path>
</svg>