<?xml version="1.0" encoding="utf-8"?>
<!DOCTYPE svg PUBLIC "-//W3C//DTD SVG 1.1//EN" "http://www.w3.org/Graphics/SVG/1.1/DTD/svg11.dtd">
<svg version="1.1" xmlns="http://www.w3.org/2000/svg" xmlns:xlink="http://www.w3.org/1999/xlink" width="32" height="32" viewBox="0 0 32 32">
	<path d="M15.795 0.642c-8.483 0.114-15.267 7.082-15.154 15.563s7.082 15.267 15.565 15.154c8.482-0.112 15.267-7.082 15.154-15.565-0.114-8.482-7.085-15.266-15.565-15.152zM16.162 28.125c-6.698 0.091-12.198-5.266-12.288-11.963s5.267-12.198 11.965-12.288c6.696-0.090 12.197 5.267 12.286 11.963s-5.266 12.197-11.963 12.288zM12.242 18.603c-0.648 0-1.139-0.237-1.472-0.71-0.334-0.474-0.499-1.104-0.499-1.893 0-1.734 0.658-2.602 1.971-2.602 0.262 0 0.547 0.088 0.854 0.262 0.306 0.176 0.565 0.483 0.776 0.92l1.97-1.026c-0.787-1.419-2.094-2.13-3.917-2.13-1.245 0-2.272 0.411-3.088 1.235-0.814 0.824-1.222 1.938-1.222 3.339 0 1.437 0.403 2.56 1.21 3.366 0.805 0.806 1.867 1.21 3.181 1.21 0.822 0 1.576-0.206 2.259-0.619s1.219-0.978 1.605-1.698l-1.814-0.92c-0.35 0.842-0.955 1.264-1.813 1.264zM20.731 18.603c-0.65 0-1.141-0.237-1.472-0.71-0.334-0.472-0.499-1.104-0.499-1.893 0-1.734 0.656-2.602 1.971-2.602 0.282 0 0.574 0.088 0.882 0.262 0.306 0.176 0.566 0.483 0.774 0.92l1.944-1.026c-0.771-1.419-2.066-2.13-3.891-2.13-1.243 0-2.272 0.411-3.086 1.235-0.816 0.824-1.222 1.936-1.222 3.338 0 1.437 0.398 2.56 1.195 3.366 0.798 0.806 1.864 1.21 3.195 1.21 0.806 0 1.55-0.206 2.234-0.619 0.682-0.413 1.226-0.978 1.629-1.698l-1.84-0.92c-0.35 0.843-0.954 1.266-1.813 1.266z" fill="#000000"></path>
</svg>