<?xml version="1.0" encoding="utf-8"?>
<!DOCTYPE svg PUBLIC "-//W3C//DTD SVG 1.1//EN" "http://www.w3.org/Graphics/SVG/1.1/DTD/svg11.dtd">
<svg version="1.1" xmlns="http://www.w3.org/2000/svg" xmlns:xlink="http://www.w3.org/1999/xlink" width="32" height="32" viewBox="0 0 32 32">
	<path d="M19.078 1.28c-6.098 0-11.114 4.709-11.603 10.678-3.621 1.413-6.195 4.938-6.195 9.051 0 5.355 4.36 9.71 9.717 9.71 4.123 0 7.656-2.581 9.064-6.211 5.962-0.501 10.659-5.509 10.659-11.595 0-6.414-5.221-11.634-11.642-11.634zM10.997 27.483c-3.571 0-6.477-2.902-6.477-6.474 0-2.371 1.283-4.448 3.192-5.576 0.976 4.405 4.459 7.88 8.872 8.848-1.126 1.914-3.21 3.202-5.587 3.202zM11.101 14.538c3.485 0.054 6.309 2.872 6.371 6.354-3.197-0.642-5.723-3.16-6.371-6.354zM20.712 20.888c-0.066-5.266-4.344-9.533-9.614-9.587 0.752-3.715 4.043-6.522 7.979-6.522 4.49 0 8.141 3.65 8.141 8.134 0.002 3.928-2.795 7.214-6.506 7.974zM4.608 8.184c1.832 0 3.32-1.488 3.32-3.317s-1.488-3.317-3.32-3.317c-1.83 0-3.318 1.488-3.318 3.317s1.488 3.317 3.318 3.317zM4.608 3.037c1.010 0 1.832 0.821 1.832 1.83 0 1.008-0.821 1.83-1.832 1.83-1.008 0-1.83-0.821-1.83-1.83s0.822-1.83 1.83-1.83z" fill="#000000"></path>
</svg>