<?xml version="1.0" encoding="utf-8"?>
<!DOCTYPE svg PUBLIC "-//W3C//DTD SVG 1.1//EN" "http://www.w3.org/Graphics/SVG/1.1/DTD/svg11.dtd">
<svg version="1.1" xmlns="http://www.w3.org/2000/svg" xmlns:xlink="http://www.w3.org/1999/xlink" width="32" height="32" viewBox="0 0 32 32">
	<path d="M12.179 6.813c-0.587-0.552-1.381-0.552-1.97 0l-10.21 9.187 10.21 9.186c0.589 0.554 1.382 0.554 1.97 0s0.587-1.45 0-2.003l-7.926-7.182 7.928-7.181c0.586-0.554 0.586-1.451-0.002-2.006zM21.79 6.813c-0.589-0.552-1.381-0.552-1.97 0-0.587 0.555-0.557 1.451 0.034 2.005l7.893 7.182-7.894 7.182c-0.589 0.554-0.621 1.45-0.034 2.003 0.589 0.554 1.381 0.554 1.97 0l10.211-9.186-10.21-9.187z" fill="#000000"></path>
</svg>