<?xml version="1.0" encoding="utf-8"?>
<!DOCTYPE svg PUBLIC "-//W3C//DTD SVG 1.1//EN" "http://www.w3.org/Graphics/SVG/1.1/DTD/svg11.dtd">
<svg version="1.1" xmlns="http://www.w3.org/2000/svg" xmlns:xlink="http://www.w3.org/1999/xlink" width="32" height="32" viewBox="0 0 32 32">
	<path d="M15.795 0.642c-8.483 0.114-15.267 7.082-15.154 15.563 0.114 8.483 7.082 15.267 15.565 15.155 8.482-0.115 15.267-7.082 15.154-15.565-0.117-8.483-7.085-15.267-15.565-15.154zM16.162 28.125c-6.696 0.091-12.197-5.266-12.288-11.963-0.088-6.696 5.267-12.197 11.965-12.286 6.696-0.090 12.197 5.266 12.286 11.963s-5.266 12.195-11.963 12.286zM8.725 23.206c0 0 7.31-1.003 10.429-4.122s4.122-10.429 4.122-10.429-7.309 1.005-10.427 4.122c-3.118 3.12-4.123 10.429-4.123 10.429zM14.424 14.355c1.31-1.312 3.816-2.242 5.966-2.819-0.578 2.146-1.512 4.67-2.814 5.971-0.87 0.87-2.282 0.87-3.152 0-0.872-0.87-0.872-2.282 0-3.152z" fill="#000000"></path>
</svg>