<?xml version="1.0" encoding="utf-8"?>
<!DOCTYPE svg PUBLIC "-//W3C//DTD SVG 1.1//EN" "http://www.w3.org/Graphics/SVG/1.1/DTD/svg11.dtd">
<svg version="1.1" xmlns="http://www.w3.org/2000/svg" xmlns:xlink="http://www.w3.org/1999/xlink" width="32" height="32" viewBox="0 0 32 32">
	<path d="M21.856 19.501c2.026-0.053 3.846-1.122 4.922-2.982 1.694-2.934 0.734-6.474-2.528-8.357l-2.043-1.181 3.422-5.93-1.822-1.051-6.616 11.456c-0.515-1.27-1.502-2.414-2.933-3.238l-3.867-2.235-5.99 10.376 3.867 2.234c1.43 0.826 2.917 1.101 4.28 0.907l-6.611 11.448 1.824 1.053 3.424-5.928 2.045 1.179c3.262 1.883 6.826 0.917 8.518-2.019 1.072-1.859 1.078-3.962 0.109-5.731zM23.294 9.822c2.178 1.258 2.738 3.576 1.557 5.621-1.181 2.046-3.453 2.691-5.632 1.434l-2.019-1.165c0.024-0.058 0.043-0.115 0.064-0.173l3.984-6.899 2.046 1.182zM9.226 16.931l-2.045-1.181 4.072-7.056 2.046 1.181c2.178 1.258 2.736 3.576 1.557 5.622-1.181 2.046-3.451 2.693-5.63 1.434zM14.187 25.592l-2.046-1.181 3.989-6.906c0.037-0.045 0.075-0.088 0.11-0.134l2.019 1.166c2.181 1.256 2.738 3.576 1.56 5.622-1.182 2.045-3.454 2.69-5.632 1.432z" fill="#000000"></path>
</svg>