<?xml version="1.0" encoding="utf-8"?>
<!DOCTYPE svg PUBLIC "-//W3C//DTD SVG 1.1//EN" "http://www.w3.org/Graphics/SVG/1.1/DTD/svg11.dtd">
<svg version="1.1" xmlns="http://www.w3.org/2000/svg" xmlns:xlink="http://www.w3.org/1999/xlink" width="32" height="32" viewBox="0 0 32 32">
	<path d="M26.763 20.544c-1.35 2.182-5.656 3.778-10.763 3.778-5.104 0-9.413-1.595-10.762-3.778-0.286-0.462-0.438-0.214-0.438 0.014 0 0.23 0 3.203 0 3.203 0 3.102 5.014 6.318 11.2 6.318s11.2-3.216 11.2-6.318c0 0 0-2.973 0-3.203 0-0.229-0.154-0.477-0.437-0.014zM26.779 12.36c-1.326 1.93-5.651 3.344-10.779 3.344s-9.453-1.414-10.779-3.344c-0.275-0.398-0.421-0.182-0.421-0.002s0 3.77 0 3.77c0 2.821 5.014 5.106 11.2 5.106s11.2-2.285 11.2-5.106c0 0 0-3.589 0-3.77s-0.147-0.397-0.421 0.002zM16 1.92c-6.186 0-11.2 1.885-11.2 4.211v2.014c0 2.467 5.014 4.467 11.2 4.467s11.2-2 11.2-4.467v-2.013c0-2.328-5.014-4.213-11.2-4.213z" fill="#000000"></path>
</svg>