<?xml version="1.0" encoding="utf-8"?>
<!DOCTYPE svg PUBLIC "-//W3C//DTD SVG 1.1//EN" "http://www.w3.org/Graphics/SVG/1.1/DTD/svg11.dtd">
<svg version="1.1" xmlns="http://www.w3.org/2000/svg" xmlns:xlink="http://www.w3.org/1999/xlink" width="32" height="32" viewBox="0 0 32 32">
	<path d="M13.6 1.6h-1.438c-0.354 0-0.642 0.288-0.642 0.64v6.080h-5.658c-0.264 0-0.592 0.061-0.906 0.157-0.317 0.098-0.619 0.232-0.835 0.379l-3.8 2.608c-0.214 0.147-0.322 0.341-0.322 0.536s0.107 0.389 0.322 0.536l3.8 2.608c0.216 0.147 0.518 0.282 0.835 0.379 0.314 0.096 0.642 0.157 0.906 0.157h5.658v14.080c0 0.354 0.288 0.64 0.64 0.64h1.44c0.354 0 0.64-0.288 0.64-0.64v-27.52c0-0.352-0.286-0.64-0.64-0.64zM31.678 8.266l-3.8-2.608c-0.214-0.147-0.517-0.282-0.834-0.379-0.315-0.098-0.643-0.158-0.907-0.158h-10.938l1.282 7.36h9.656c0.264 0 0.592-0.061 0.907-0.157s0.619-0.232 0.834-0.378l3.8-2.608c0.216-0.149 0.322-0.342 0.322-0.538s-0.106-0.389-0.322-0.534z" fill="#000000"></path>
</svg>