<?xml version="1.0" encoding="utf-8"?>
<!DOCTYPE svg PUBLIC "-//W3C//DTD SVG 1.1//EN" "http://www.w3.org/Graphics/SVG/1.1/DTD/svg11.dtd">
<svg version="1.1" xmlns="http://www.w3.org/2000/svg" xmlns:xlink="http://www.w3.org/1999/xlink" width="32" height="32" viewBox="0 0 32 32">
	<path d="M31.037 11.862l-11.912-3.19-2.085-7.779c-0.174-0.65-0.87-1.029-1.555-0.845l-14.52 3.89c-0.685 0.182-1.098 0.859-0.925 1.509l5.166 19.283c0.174 0.65 0.87 1.029 1.554 0.845l5.781-1.549-0.789 2.941c-0.174 0.651 0.238 1.326 0.923 1.51l12.976 3.477c0.685 0.182 1.381-0.195 1.555-0.845l4.754-17.738c0.174-0.65-0.238-1.326-0.923-1.509zM2.614 5.811l12.526-3.354 4.638 17.309-12.528 3.354-4.637-17.309zM25.086 29.544l-10.904-2.982 0.858-3.205 6.242-1.672c0.685-0.184 1.099-0.859 0.925-1.51l-2.413-9.003 9.514 2.61-4.221 15.763z" fill="#000000"></path>
</svg>