<?xml version="1.0" encoding="utf-8"?>
<!DOCTYPE svg PUBLIC "-//W3C//DTD SVG 1.1//EN" "http://www.w3.org/Graphics/SVG/1.1/DTD/svg11.dtd">
<svg version="1.1" xmlns="http://www.w3.org/2000/svg" xmlns:xlink="http://www.w3.org/1999/xlink" width="32" height="32" viewBox="0 0 32 32">
	<path d="M30.942 15.269c-0.629-0.667-3.654-3.635-5.038-4.99-0.426-0.414-1.034-0.678-1.669-0.678-0.634 0-8.234 0-8.234 0s-7.6 0-8.235 0-1.245 0.266-1.669 0.68c-1.384 1.355-4.413 4.323-5.040 4.99-0.782 0.832-1.211 1.496-1.006 2.318l0.898 4.918c0.203 0.822 1.104 1.496 2.002 1.496h26.099c0.898 0 1.798-0.674 2.002-1.496l0.899-4.918c0.203-0.822-0.226-1.488-1.008-2.32zM22.477 16.334c-0.163 0-0.309 0.083-0.382 0.213l-1.307 3.258h-9.573l-1.307-3.258c-0.072-0.13-0.221-0.213-0.382-0.213h-5.672l3.266-3.694h17.766l3.264 3.694h-5.672z" fill="#000000"></path>
</svg>