<?xml version="1.0" encoding="utf-8"?>
<!DOCTYPE svg PUBLIC "-//W3C//DTD SVG 1.1//EN" "http://www.w3.org/Graphics/SVG/1.1/DTD/svg11.dtd">
<svg version="1.1" xmlns="http://www.w3.org/2000/svg" xmlns:xlink="http://www.w3.org/1999/xlink" width="32" height="32" viewBox="0 0 32 32">
	<path d="M15.304 11.874c-2.173-3.864-4.496-7.013-4.667-7.243-3.506 1.656-6.123 4.885-6.938 8.778 0.33 0.006 5.568 0.069 11.605-1.534zM16.87 16.096c0.166-0.053 0.33-0.101 0.498-0.149-0.315-0.715-0.661-1.43-1.021-2.136-6.474 1.936-12.686 1.797-12.907 1.79-0.005 0.133-0.010 0.264-0.010 0.398 0 3.234 1.222 6.178 3.226 8.405-0.003-0.003-0.010-0.011-0.010-0.011s3.442-6.102 10.224-8.298zM8.274 25.909l0.003-0.005c-0.094-0.074-0.194-0.139-0.285-0.216 0.166 0.134 0.282 0.221 0.282 0.221zM12.989 3.795c-0.011 0.003-0.022 0.005-0.032 0.008 0.018-0.005 0.030-0.006 0.032-0.008v0zM24.302 6.566c-2.214-1.95-5.118-3.136-8.301-3.136-1.022 0-2.013 0.125-2.963 0.355 0.19 0.253 2.55 3.389 4.701 7.333 4.739-1.778 6.531-4.501 6.563-4.552zM16.002 30.72c-8.131 0-14.722-6.59-14.722-14.72s6.59-14.72 14.722-14.72c8.13 0 14.718 6.59 14.718 14.72s-6.589 14.72-14.718 14.72zM18.139 18.056c-7.378 2.571-9.814 7.742-9.862 7.848 2.131 1.666 4.81 2.666 7.725 2.666 1.741 0 3.398-0.354 4.906-0.994-0.186-1.102-0.917-4.954-2.685-9.549-0.027 0.011-0.056 0.019-0.083 0.029zM18.704 12.99c0.294 0.6 0.574 1.208 0.835 1.824 0.094 0.218 0.182 0.434 0.272 0.65 4.342-0.546 8.616 0.381 8.755 0.411-0.029-2.982-1.094-5.718-2.858-7.859-0.026 0.037-2.042 2.949-7.005 4.974zM20.578 17.448c1.651 4.536 2.32 8.227 2.446 8.979 2.824-1.906 4.829-4.928 5.387-8.434-0.248-0.082-3.77-1.197-7.834-0.546z" fill="#000000"></path>
</svg>