<?xml version="1.0" encoding="utf-8"?>
<!DOCTYPE svg PUBLIC "-//W3C//DTD SVG 1.1//EN" "http://www.w3.org/Graphics/SVG/1.1/DTD/svg11.dtd">
<svg version="1.1" xmlns="http://www.w3.org/2000/svg" xmlns:xlink="http://www.w3.org/1999/xlink" width="32" height="32" viewBox="0 0 32 32">
	<path d="M16.414 15.973c0.054-0.018 0.109-0.034 0.166-0.051-0.133-0.298-0.28-0.603-0.446-0.933-3.008 0.89-5.888 0.899-6.402 0.893-0.003 0.038-0.005 0.080-0.005 0.118 0 1.512 0.544 2.966 1.533 4.107 0.331-0.533 2.077-3.139 5.154-4.134zM20.088 11.246c-1.138-0.979-2.586-1.517-4.088-1.517-0.453 0-0.909 0.050-1.358 0.149 0.326 0.442 1.331 1.835 2.274 3.557 2.051-0.787 2.979-1.925 3.173-2.189zM12.198 20.981c1.102 0.846 2.416 1.291 3.802 1.291 0.829 0 1.632-0.16 2.392-0.472-0.106-0.61-0.472-2.464-1.315-4.674-3.395 1.2-4.675 3.458-4.878 3.854zM15.528 13.864c-0.973-1.715-1.986-3.128-2.262-3.507-1.707 0.83-2.963 2.411-3.381 4.256h0.026c0.65 0 2.957-0.054 5.618-0.749zM18.422 16.797c0.744 2.066 1.088 3.786 1.184 4.334 1.363-0.96 2.294-2.434 2.574-4.067-0.278-0.083-1.282-0.355-2.547-0.355-0.411 0-0.821 0.030-1.211 0.088zM16 0.64c-8.483 0-15.36 6.877-15.36 15.36s6.877 15.36 15.36 15.36c8.485 0 15.36-6.877 15.36-15.36s-6.875-15.36-15.36-15.36zM16 23.517c-4.144 0-7.517-3.371-7.517-7.517s3.371-7.517 7.517-7.517c4.147 0 7.52 3.371 7.52 7.517s-3.373 7.517-7.52 7.517zM17.475 14.522c0.139 0.285 0.267 0.57 0.387 0.848 0.037 0.091 0.078 0.181 0.115 0.272 0.443-0.053 0.915-0.080 1.41-0.080 1.366 0 2.502 0.2 2.882 0.275-0.034-1.36-0.515-2.682-1.363-3.742-0.256 0.331-1.309 1.541-3.43 2.427z" fill="#000000"></path>
</svg>