<?xml version="1.0" encoding="utf-8"?>
<!DOCTYPE svg PUBLIC "-//W3C//DTD SVG 1.1//EN" "http://www.w3.org/Graphics/SVG/1.1/DTD/svg11.dtd">
<svg version="1.1" xmlns="http://www.w3.org/2000/svg" xmlns:xlink="http://www.w3.org/1999/xlink" width="32" height="32" viewBox="0 0 32 32">
	<path d="M9.774 1.443l-9.134 5.69 6.258 5.246 9.102-5.912-6.226-5.024zM21.523 25.59c-0.163 0-0.325-0.056-0.456-0.166l-5.067-4.202-5.067 4.203c-0.131 0.109-0.294 0.166-0.456 0.166-0.136 0-0.272-0.037-0.39-0.115l-3.754-2.456v1.45l9.667 6.086 9.667-6.088v-1.45l-3.754 2.456c-0.118 0.078-0.254 0.115-0.39 0.115zM31.36 7.133l-9.134-5.69-6.226 5.024 9.101 5.91 6.259-5.245zM16 18.066l5.643 4.685 9.027-5.901-5.568-4.47-9.102 5.686zM10.357 22.75l5.643-4.685-9.101-5.688-5.568 4.472 9.026 5.901z" fill="#000000"></path>
</svg>