<?xml version="1.0" encoding="utf-8"?>
<!DOCTYPE svg PUBLIC "-//W3C//DTD SVG 1.1//EN" "http://www.w3.org/Graphics/SVG/1.1/DTD/svg11.dtd">
<svg version="1.1" xmlns="http://www.w3.org/2000/svg" xmlns:xlink="http://www.w3.org/1999/xlink" width="32" height="32" viewBox="0 0 32 32">
	<path d="M16 0.638c-8.47 0-15.36 6.893-15.36 15.362 0 8.47 6.89 15.362 15.36 15.362s15.36-6.891 15.36-15.362c0-8.469-6.89-15.362-15.36-15.362zM29.101 16c0 2.997-1.018 5.762-2.714 7.97-0.48-0.376-0.989-1.389-0.509-2.438 0.483-1.056 0.61-3.501 0.499-4.451-0.106-0.95-0.6-3.242-1.944-3.264-1.339-0.021-2.259-0.462-3.056-2.053-1.653-3.307 3.102-3.944 1.45-5.776-0.462-0.514-2.853 2.118-3.203-1.389-0.024-0.251 0.216-0.627 0.536-1.016 5.19 1.744 8.941 6.65 8.941 12.418zM14.2 3.030c-0.312 0.608-1.139 0.858-1.643 1.317-1.093 0.989-1.563 0.853-2.154 1.803-0.592 0.95-2.506 2.318-2.506 3.006 0 0.686 0.966 1.499 1.45 1.341 0.483-0.16 1.757-0.15 2.506 0.112 0.75 0.266 6.264 0.53 4.506 5.19-0.557 1.482-2.995 1.232-3.645 3.686-0.098 0.36-0.434 1.898-0.458 2.4-0.038 0.778 0.55 3.709-0.2 3.709-0.754 0-2.779-2.622-2.779-3.098s-0.526-2.142-0.526-3.568-2.427-1.403-2.427-3.299c0-1.712 1.317-2.563 1.021-3.381-0.291-0.816-2.603-0.845-3.566-0.944 1.683-4.371 5.646-7.616 10.422-8.275zM11.88 28.432c0.787-0.414 0.867-0.952 1.581-0.981 0.816-0.035 1.48-0.318 2.398-0.52 0.818-0.178 2.277-1.006 3.565-1.112 1.083-0.090 3.224 0.056 3.8 1.102-2.074 1.376-4.557 2.179-7.224 2.179-1.44 0-2.824-0.237-4.12-0.669z" fill="#000000"></path>
</svg>