<?xml version="1.0" encoding="utf-8"?>
<!DOCTYPE svg PUBLIC "-//W3C//DTD SVG 1.1//EN" "http://www.w3.org/Graphics/SVG/1.1/DTD/svg11.dtd">
<svg version="1.1" xmlns="http://www.w3.org/2000/svg" xmlns:xlink="http://www.w3.org/1999/xlink" width="32" height="32" viewBox="0 0 32 32">
	<path d="M28.8 4.8h-15.286c-0.704 0-1.714 0.379-2.243 0.843l-10.874 9.514c-0.53 0.464-0.53 1.222 0 1.686l10.874 9.515c0.53 0.462 1.539 0.842 2.243 0.842h15.286c1.762 0 3.2-1.44 3.2-3.2v-16c0-1.76-1.438-3.2-3.2-3.2zM24.306 22.4l-4.091-4.091-4.088 4.091-2.31-2.309 4.090-4.091-4.090-4.090 2.31-2.31 4.090 4.090 4.090-4.090 2.309 2.31-4.088 4.090 4.090 4.090-2.31 2.31z" fill="#000000"></path>
</svg>