<?xml version="1.0" encoding="utf-8"?>
<!DOCTYPE svg PUBLIC "-//W3C//DTD SVG 1.1//EN" "http://www.w3.org/Graphics/SVG/1.1/DTD/svg11.dtd">
<svg version="1.1" xmlns="http://www.w3.org/2000/svg" xmlns:xlink="http://www.w3.org/1999/xlink" width="32" height="32" viewBox="0 0 32 32">
	<path d="M27.742 6.893c0-1.84-2.771-2.045-2.771-2.045l-6.51-0.41c0 0-0.139-1.773-1.456-2.387-1.315-0.613-2.762-0.427-3.8-0.416s-1.286 1.338-1.286 2.589 0.024 2.691 0.024 3.6c0 1.626-0.715 2.318-2.506 2.318h-3.691c-1.032-0.067-1.837 0.102-1.837 0.938 0 0.834 1.216 7.955 2.883 9.598 0.968 0.954 6.886 1.622 8.133 1.622s0.832-3.682 1.178-3.682 0.728 2.080 2.691 2.566c1.963 0.49 4.584 0.398 4.723 1.795 0.181 1.843 0.346 4.229-0.867 4.398l-2.744 0.109c-1.882-0.136-1.378-2.19-0.547-2.19s1.246-0.034 1.246-0.034l0.104-2.25c0 0-4.309-0.509-4.493 2.398-0.166 2.656 0.29 3.909 0.624 4.181 0.336 0.275 0.915 0.806 6.192 0.806 7.435 0 4.71-21.669 4.71-23.507zM24.704 16.514c-0.291 0.31-1.347-0.514-2.355-0.514-1.010 0-2.099 0.534-2.355 0.184-0.254-0.352 0.235-3.187 2.136-3.187s2.867 3.205 2.574 3.517zM9.285 6.666c0-0.363 0.094-4.774 0.094-4.774l-5.61 5.502c0 0 3.875 0 4.635 0 0.763 0 0.88-0.363 0.88-0.728z" fill="#000000"></path>
</svg>