<?xml version="1.0" encoding="utf-8"?>
<!DOCTYPE svg PUBLIC "-//W3C//DTD SVG 1.1//EN" "http://www.w3.org/Graphics/SVG/1.1/DTD/svg11.dtd">
<svg version="1.1" xmlns="http://www.w3.org/2000/svg" xmlns:xlink="http://www.w3.org/1999/xlink" width="32" height="32" viewBox="0 0 32 32">
	<path d="M16 7.040c-10.498 0-16 7.733-16 8.96s5.502 8.96 16 8.96 16-7.733 16-8.96-5.502-8.96-16-8.96zM16 22.893c-3.926 0-7.11-3.086-7.11-6.893s3.184-6.893 7.11-6.893c3.928 0 7.112 3.086 7.112 6.893s-3.184 6.893-7.112 6.893zM16 16c-0.65-0.714 1.062-3.445 0-3.445-1.963 0-3.555 1.542-3.555 3.445s1.592 3.446 3.555 3.446c1.965 0 3.557-1.544 3.557-3.446 0-0.874-3.002 0.608-3.557 0z" fill="#000000"></path>
</svg>