<?xml version="1.0" encoding="utf-8"?>
<!DOCTYPE svg PUBLIC "-//W3C//DTD SVG 1.1//EN" "http://www.w3.org/Graphics/SVG/1.1/DTD/svg11.dtd">
<svg version="1.1" xmlns="http://www.w3.org/2000/svg" xmlns:xlink="http://www.w3.org/1999/xlink" width="32" height="32" viewBox="0 0 32 32">
	<path d="M27.384 4.614c-2.682-2.68-6.046-3.661-7.118-2.589l-4.314 4.315c-0.654 0.654-1.226 2.845-0.963 5.061l-13.058 13.059c-0.774 0.773-0.147 2.656 1.402 4.205 1.549 1.55 3.434 2.176 4.206 1.403l13.058-13.058c2.218 0.262 4.408-0.309 5.061-0.963l4.315-4.315c1.072-1.072 0.091-4.437-2.589-7.118zM13.026 17.664c-0.597-0.595-0.402-1.755 0.43-2.589s1.992-1.027 2.589-0.432c0.594 0.595 0.402 1.755-0.432 2.589s-1.992 1.027-2.587 0.432zM23.826 8.174c-2.077-2.077-2.598-4.816-2.414-5.002 0.186-0.186 2.818 0.445 4.896 2.522 2.077 2.077 2.699 4.715 2.52 4.894s-2.926-0.338-5.002-2.414z" fill="#000000"></path>
</svg>