<?xml version="1.0" encoding="utf-8"?>
<!DOCTYPE svg PUBLIC "-//W3C//DTD SVG 1.1//EN" "http://www.w3.org/Graphics/SVG/1.1/DTD/svg11.dtd">
<svg version="1.1" xmlns="http://www.w3.org/2000/svg" xmlns:xlink="http://www.w3.org/1999/xlink" width="32" height="32" viewBox="0 0 32 32">
	<path d="M8.958 13.667c0-2.619 0.694-4.285 3.022-4.659 0.813-0.16 2.506-0.102 3.582-0.102v4c0 0.035 0.005 0.101 0.014 0.134 0.043 0.16 0.189 0.28 0.363 0.28 0.099 0 0.19-0.051 0.286-0.144l9.976-9.974-14.125-0.002c-5.878 0-8.878 3.386-8.878 9.706v13.261l5.758-5.763v-6.736zM23.043 11.598v6.734c0 2.619-0.696 4.286-3.024 4.659-0.813 0.16-2.504 0.102-3.581 0.102v-4c0-0.035-0.006-0.101-0.014-0.134-0.045-0.162-0.192-0.28-0.366-0.282-0.099 0-0.189 0.051-0.286 0.146l-9.976 9.973 14.128 0.003c5.877 0 8.877-3.384 8.877-9.706v-13.261l-5.757 5.765z" fill="#000000"></path>
</svg>