<?xml version="1.0" encoding="utf-8"?>
<!DOCTYPE svg PUBLIC "-//W3C//DTD SVG 1.1//EN" "http://www.w3.org/Graphics/SVG/1.1/DTD/svg11.dtd">
<svg version="1.1" xmlns="http://www.w3.org/2000/svg" xmlns:xlink="http://www.w3.org/1999/xlink" width="32" height="32" viewBox="0 0 32 32">
	<path d="M16 0.64c-8.483 0-15.36 6.877-15.36 15.36s6.877 15.36 15.36 15.36 15.36-6.877 15.36-15.36-6.875-15.36-15.36-15.36zM11.896 19.234c-1.752 0-3.171-1.446-3.171-3.234s1.419-3.234 3.171-3.234c1.752 0 3.173 1.446 3.173 3.234-0.002 1.787-1.421 3.234-3.173 3.234zM20.102 19.234c-1.754 0-3.173-1.446-3.173-3.234s1.419-3.234 3.173-3.234c1.75 0 3.171 1.446 3.171 3.234 0.002 1.787-1.421 3.234-3.171 3.234z" fill="#000000"></path>
</svg>