<?xml version="1.0" encoding="utf-8"?>
<!DOCTYPE svg PUBLIC "-//W3C//DTD SVG 1.1//EN" "http://www.w3.org/Graphics/SVG/1.1/DTD/svg11.dtd">
<svg version="1.1" xmlns="http://www.w3.org/2000/svg" xmlns:xlink="http://www.w3.org/1999/xlink" width="32" height="32" viewBox="0 0 32 32">
	<path d="M28.718 23.674v-3.674c0-2.219-1.469-5.52-5.518-5.52h-3.2c-2.259 0-2.469-1.107-2.48-1.68v-4.474c1.365-0.59 2.32-1.947 2.32-3.526 0-2.12-1.718-3.84-3.84-3.84s-3.84 1.72-3.84 3.84c0 1.579 0.955 2.936 2.32 3.526v4.474c0 0.414-0.12 1.68-2.48 1.68h-3.2c-4.050 0-5.52 3.301-5.52 5.52v3.674c-1.365 0.589-2.32 1.947-2.32 3.526 0 2.12 1.718 3.84 3.84 3.84 2.12 0 3.84-1.72 3.84-3.84 0-1.579-0.955-2.938-2.32-3.526v-3.674c0-0.414 0.12-2.48 2.48-2.48h3.2c0.971 0 1.79-0.147 2.48-0.397v6.55c-1.365 0.589-2.32 1.947-2.32 3.526 0 2.12 1.718 3.84 3.84 3.84s3.84-1.72 3.84-3.84c0-1.579-0.957-2.938-2.322-3.526v-6.55c0.69 0.25 1.509 0.397 2.48 0.397h3.2c2.259 0 2.469 1.907 2.482 2.48v3.674c-1.365 0.589-2.32 1.947-2.32 3.526 0 2.12 1.718 3.84 3.84 3.84s3.84-1.72 3.84-3.84c0-1.579-0.955-2.938-2.322-3.526zM7.016 27.2c0 1.224-0.992 2.216-2.216 2.216s-2.216-0.992-2.216-2.216 0.992-2.216 2.216-2.216 2.216 0.992 2.216 2.216zM13.784 4.8c0-1.224 0.994-2.216 2.216-2.216s2.214 0.992 2.214 2.216-0.992 2.216-2.214 2.216c-1.222 0-2.216-0.992-2.216-2.216zM18.216 27.2c0 1.224-0.994 2.216-2.214 2.216-1.224 0-2.216-0.992-2.216-2.216s0.992-2.216 2.214-2.216c1.222 0 2.216 0.992 2.216 2.216zM27.2 29.416c-1.222 0-2.216-0.992-2.216-2.216s0.994-2.216 2.216-2.216 2.216 0.992 2.216 2.216-0.994 2.216-2.216 2.216z" fill="#000000"></path>
</svg>