<?xml version="1.0" encoding="utf-8"?>
<!DOCTYPE svg PUBLIC "-//W3C//DTD SVG 1.1//EN" "http://www.w3.org/Graphics/SVG/1.1/DTD/svg11.dtd">
<svg version="1.1" xmlns="http://www.w3.org/2000/svg" xmlns:xlink="http://www.w3.org/1999/xlink" width="32" height="32" viewBox="0 0 32 32">
	<path d="M13.44 6.4c0-2.122-1.72-3.84-3.84-3.84s-3.84 1.718-3.84 3.84c0 1.579 0.955 2.936 2.32 3.525v12.149c-1.365 0.589-2.32 1.946-2.32 3.526 0 2.12 1.72 3.84 3.84 3.84 2.122 0 3.84-1.72 3.84-3.84 0-1.581-0.957-2.938-2.32-3.526v-12.149c1.365-0.589 2.32-1.946 2.32-3.525zM11.816 25.6c0 1.224-0.992 2.216-2.216 2.216-1.222 0-2.214-0.992-2.214-2.216s0.992-2.216 2.214-2.216c1.224 0 2.216 0.992 2.216 2.216zM9.6 8.616c-1.222 0-2.214-0.992-2.214-2.216s0.992-2.216 2.214-2.216c1.224 0 2.216 0.992 2.216 2.216s-0.992 2.216-2.216 2.216zM23.922 22.074v-12.149c1.363-0.589 2.318-1.946 2.318-3.525 0-2.122-1.718-3.84-3.84-3.84-2.118 0-3.84 1.718-3.84 3.84 0 1.579 0.957 2.936 2.322 3.525v12.149c-1.366 0.589-2.322 1.946-2.322 3.526 0 2.12 1.722 3.84 3.84 3.84 2.122 0 3.84-1.72 3.84-3.84 0-1.581-0.955-2.938-2.318-3.526zM20.184 6.4c0-1.224 0.994-2.216 2.216-2.216 1.226 0 2.216 0.992 2.216 2.216s-0.99 2.216-2.216 2.216c-1.222 0-2.216-0.992-2.216-2.216zM22.4 27.816c-1.222 0-2.216-0.992-2.216-2.216s0.994-2.216 2.216-2.216c1.226 0 2.216 0.992 2.216 2.216s-0.99 2.216-2.216 2.216z" fill="#000000"></path>
</svg>