<?xml version="1.0" encoding="utf-8"?>
<!DOCTYPE svg PUBLIC "-//W3C//DTD SVG 1.1//EN" "http://www.w3.org/Graphics/SVG/1.1/DTD/svg11.dtd">
<svg version="1.1" xmlns="http://www.w3.org/2000/svg" xmlns:xlink="http://www.w3.org/1999/xlink" width="32" height="32" viewBox="0 0 32 32">
	<path d="M22.4 23.36c-1.579 0-2.938 0.957-3.526 2.32h-5.274c-2.259 0-2.47-1.907-2.48-2.48v-6.189c0.69 0.318 1.509 0.509 2.48 0.509h5.274c0.589 1.365 1.947 2.32 3.526 2.32 2.12 0 3.84-1.72 3.84-3.84s-1.72-3.84-3.84-3.84c-1.579 0-2.938 0.957-3.526 2.32h-5.274c-2.259 0-2.47-1.907-2.48-2.48v-3.674c1.365-0.589 2.318-1.947 2.318-3.526 0-2.12-1.718-3.84-3.838-3.84s-3.84 1.72-3.84 3.84c0 1.579 0.957 2.936 2.32 3.526v14.874c0 2.219 1.47 5.52 5.52 5.52h5.274c0.589 1.365 1.947 2.32 3.526 2.32 2.12 0 3.84-1.718 3.84-3.84 0-2.12-1.72-3.84-3.84-3.84zM22.4 13.784c1.224 0 2.216 0.992 2.216 2.216s-0.992 2.216-2.216 2.216-2.216-0.992-2.216-2.216 0.992-2.216 2.216-2.216zM7.384 4.8c0-1.224 0.992-2.216 2.216-2.216s2.216 0.992 2.216 2.216-0.992 2.216-2.216 2.216-2.216-0.992-2.216-2.216zM22.4 29.416c-1.224 0-2.216-0.992-2.216-2.216s0.992-2.216 2.216-2.216 2.216 0.992 2.216 2.216-0.992 2.216-2.216 2.216z" fill="#000000"></path>
</svg>