<?xml version="1.0" encoding="utf-8"?>
<!DOCTYPE svg PUBLIC "-//W3C//DTD SVG 1.1//EN" "http://www.w3.org/Graphics/SVG/1.1/DTD/svg11.dtd">
<svg version="1.1" xmlns="http://www.w3.org/2000/svg" xmlns:xlink="http://www.w3.org/1999/xlink" width="32" height="32" viewBox="0 0 32 32">
	<path d="M26.24 6.4c0-2.12-1.718-3.84-3.84-3.84s-3.84 1.72-3.84 3.84c0 1.557 0.928 2.894 2.259 3.498-0.363 3.117-2.371 3.746-5.272 4.651-1.408 0.44-3.045 0.952-4.427 1.947v-6.57c1.365-0.59 2.32-1.947 2.32-3.526 0-2.12-1.72-3.84-3.84-3.84-2.122 0-3.84 1.72-3.84 3.84 0 1.579 0.955 2.936 2.32 3.526v12.149c-1.365 0.587-2.32 1.944-2.32 3.525 0 2.12 1.718 3.84 3.84 3.84 2.12 0 3.84-1.72 3.84-3.84 0-1.557-0.928-2.894-2.261-3.498 0.365-3.117 2.374-3.747 5.274-4.651 2.949-0.922 6.922-2.165 7.414-7.502 1.392-0.579 2.373-1.949 2.373-3.549zM7.384 6.4c0-1.224 0.992-2.216 2.216-2.216s2.216 0.992 2.216 2.216-0.992 2.216-2.216 2.216-2.216-0.992-2.216-2.216zM9.6 27.816c-1.224 0-2.216-0.992-2.216-2.216s0.992-2.216 2.216-2.216 2.216 0.992 2.216 2.216-0.992 2.216-2.216 2.216zM22.4 8.616c-1.222 0-2.216-0.992-2.216-2.216s0.994-2.216 2.216-2.216 2.216 0.992 2.216 2.216-0.994 2.216-2.216 2.216z" fill="#000000"></path>
</svg>