<?xml version="1.0" encoding="utf-8"?>
<!DOCTYPE svg PUBLIC "-//W3C//DTD SVG 1.1//EN" "http://www.w3.org/Graphics/SVG/1.1/DTD/svg11.dtd">
<svg version="1.1" xmlns="http://www.w3.org/2000/svg" xmlns:xlink="http://www.w3.org/1999/xlink" width="32" height="32" viewBox="0 0 32 32">
	<path d="M30.512 11.2h-29.024c-1.472 0-1.547 0.717-1.466 1.594l1.32 14.413c0.080 0.877 0.288 1.594 1.758 1.594h25.8c1.501 0 1.678-0.717 1.758-1.594l1.32-14.413c0.078-0.877 0.006-1.594-1.467-1.594zM29.446 7.68c-0.176-0.704-1.048-1.28-1.934-1.28h-10.902c-0.888 0-2.126-0.507-2.755-1.13l-0.954-0.941c-0.627-0.622-1.867-1.13-2.754-1.13h-5.21c-0.886 0-1.693 0.715-1.79 1.59l-0.467 4.17h27.090l-0.323-1.28z" fill="#000000"></path>
</svg>