<?xml version="1.0" encoding="utf-8"?>
<!DOCTYPE svg PUBLIC "-//W3C//DTD SVG 1.1//EN" "http://www.w3.org/Graphics/SVG/1.1/DTD/svg11.dtd">
<svg version="1.1" xmlns="http://www.w3.org/2000/svg" xmlns:xlink="http://www.w3.org/1999/xlink" width="32" height="32" viewBox="0 0 32 32">
	<path d="M16.022 15.918c-0.008 0-0.016 0-0.022 0-0.010 0-0.016 0-0.024 0-1.906 0-3.586-0.483-4.579 0.43-0.595 0.547-0.845 1.205-0.845 1.914 0 2.965 2.374 3.328 5.424 3.328h0.045c3.050 0 5.424-0.365 5.424-3.328 0-0.709-0.25-1.366-0.846-1.914-0.989-0.914-2.67-0.43-4.576-0.43zM13.43 19.968c-0.581 0-1.051-0.651-1.051-1.454s0.47-1.454 1.051-1.454 1.051 0.651 1.051 1.454-0.472 1.454-1.051 1.454zM18.568 19.968c-0.578 0-1.050-0.651-1.050-1.454s0.47-1.454 1.050-1.454c0.581 0 1.053 0.651 1.053 1.454s-0.47 1.454-1.053 1.454zM16 0.64c-8.483 0-15.36 6.877-15.36 15.36s6.877 15.36 15.36 15.36c8.48 0 15.358-6.877 15.358-15.36s-6.877-15.36-15.358-15.36zM17.4 22.304c-0.275 0-0.822 0-1.4 0.002-0.579-0.002-1.126-0.002-1.4-0.002-1.218 0-6.037-0.094-6.037-5.902 0-1.336 0.458-2.314 1.208-3.128-0.12-0.296-0.126-1.974 0.512-3.578 0 0 1.466 0.16 3.68 1.68 0.464-0.128 1.25-0.192 2.037-0.192 0.784 0 1.571 0.064 2.037 0.192 2.216-1.52 3.678-1.68 3.678-1.68 0.637 1.605 0.634 3.283 0.512 3.578 0.75 0.814 1.21 1.792 1.21 3.128 0 5.81-4.818 5.902-6.037 5.902z" fill="#000000"></path>
</svg>