<?xml version="1.0" encoding="utf-8"?>
<!DOCTYPE svg PUBLIC "-//W3C//DTD SVG 1.1//EN" "http://www.w3.org/Graphics/SVG/1.1/DTD/svg11.dtd">
<svg version="1.1" xmlns="http://www.w3.org/2000/svg" xmlns:xlink="http://www.w3.org/1999/xlink" width="32" height="32" viewBox="0 0 32 32">
	<path d="M14.555 11.656c-0.386-1.36-1.010-1.762-1.981-1.762-0.104 0-0.21 0.014-0.31 0.042-0.422 0.12-0.755 0.472-0.941 0.992-0.19 0.528-0.203 1.080-0.037 1.707 0.294 1.12 1.091 1.934 1.896 1.934 0.104 0 0.21-0.014 0.31-0.042 0.875-0.248 1.426-1.589 1.062-2.872zM16 0.64c-8.483 0-15.36 6.877-15.36 15.36s6.877 15.36 15.36 15.36c8.485 0 15.36-6.877 15.36-15.36s-6.875-15.36-15.36-15.36zM15.115 22.595c-0.966 0.469-2.005 0.518-2.406 0.518-0.077 0-0.12-0.002-0.126-0.002 0 0-0.030 0-0.078 0-0.627 0-3.749-0.144-3.749-2.987 0-2.794 3.398-3.011 4.44-3.011h0.029c-0.6-0.803-0.475-1.613-0.475-1.613-0.053 0.003-0.131 0.006-0.226 0.006-0.394 0-1.15-0.062-1.8-0.483-0.795-0.51-1.198-1.382-1.198-2.59 0-3.41 3.722-3.547 3.76-3.549h3.717v0.082c0 0.416-0.746 0.496-1.256 0.566-0.173 0.024-0.518 0.059-0.618 0.109 0.942 0.502 1.094 1.294 1.094 2.472 0 1.339-0.525 2.048-1.082 2.547-0.344 0.307-0.616 0.552-0.616 0.875 0 0.317 0.371 0.643 0.803 1.022 0.706 0.621 1.674 1.47 1.674 2.898 0 1.475-0.635 2.531-1.886 3.139zM23.243 15.986h-2.426v2.426h-1.536v-2.426h-2.426v-1.536h2.426v-2.424h1.536v2.426h2.426v1.534zM13.157 17.842c-0.083 0-0.166 0.003-0.25 0.010-0.71 0.051-1.366 0.318-1.842 0.75-0.47 0.426-0.709 0.962-0.675 1.506 0.070 1.136 1.293 1.803 2.774 1.696 1.461-0.106 2.434-0.946 2.362-2.083-0.069-1.070-0.998-1.878-2.37-1.878z" fill="#000000"></path>
</svg>