<?xml version="1.0" encoding="utf-8"?>
<!DOCTYPE svg PUBLIC "-//W3C//DTD SVG 1.1//EN" "http://www.w3.org/Graphics/SVG/1.1/DTD/svg11.dtd">
<svg version="1.1" xmlns="http://www.w3.org/2000/svg" xmlns:xlink="http://www.w3.org/1999/xlink" width="32" height="32" viewBox="0 0 32 32">
	<path d="M5.283 19.581c0.742 3.010 1.686 4.322 4.835 5.699 3.15 1.376 4.646 2.88 5.882 2.88s2.635-1.315 5.786-2.694c3.15-1.374 2.31-1.797 3.053-4.803l-8.838 4.298-10.717-5.379zM31.218 11.738l-13.32-7.459c-1.043-0.584-2.75-0.584-3.794 0l-13.322 7.459c-1.043 0.584-1.043 1.541 0 2.125l13.32 7.459c1.043 0.584 2.75 0.584 3.794 0l8.611-4.822-9.338-2.187c-0.358 0.090-0.754 0.139-1.17 0.139-1.682 0-3.045-0.811-3.045-1.811s1.363-1.813 3.045-1.813c1.306 0 2.418 0.491 2.85 1.178l9.89 3.245 2.478-1.387c1.043-0.584 1.043-1.541 0-2.125zM27.147 25.875c-0.101 0.613 2.053 1.626 2.258-0.174 0.926-8.114-0.666-10.45-0.666-10.45l-2.232 1.25c0-0.002 1.893 1.8 0.64 9.374z" fill="#000000"></path>
</svg>