<?xml version="1.0" encoding="utf-8"?>
<!DOCTYPE svg PUBLIC "-//W3C//DTD SVG 1.1//EN" "http://www.w3.org/Graphics/SVG/1.1/DTD/svg11.dtd">
<svg version="1.1" xmlns="http://www.w3.org/2000/svg" xmlns:xlink="http://www.w3.org/1999/xlink" width="32" height="32" viewBox="0 0 32 32">
	<path d="M27.502 6.64c-2.675-2.454-7.013-2.454-9.688 0l-1.814 1.667-1.816-1.667c-2.675-2.454-7.011-2.454-9.686 0-3.010 2.763-3.010 7.238 0 10.002l11.502 10.558 11.502-10.558c3.010-2.762 3.010-7.238 0-10.002zM25.8 15l-9.8 9.142-9.798-9.142c-0.989-0.906-1.371-2.099-1.371-3.36 0-1.258 0.221-2.291 1.21-3.198 0.872-0.802 2.045-1.242 3.299-1.242 1.256 0 2.429 0.762 3.301 1.563l3.36 2.922 3.36-2.922c0.872-0.802 2.043-1.563 3.299-1.563s2.429 0.44 3.302 1.242c0.987 0.907 1.206 1.941 1.21 3.198 0 1.259-0.384 2.454-1.371 3.36z" fill="#000000"></path>
</svg>