<?xml version="1.0" encoding="utf-8"?>
<!DOCTYPE svg PUBLIC "-//W3C//DTD SVG 1.1//EN" "http://www.w3.org/Graphics/SVG/1.1/DTD/svg11.dtd">
<svg version="1.1" xmlns="http://www.w3.org/2000/svg" xmlns:xlink="http://www.w3.org/1999/xlink" width="32" height="32" viewBox="0 0 32 32">
	<path d="M24.96 7.325c0-3.424 0-3.758 0-3.758 0-1.264-4.011-3.566-8.96-3.566s-8.96 2.302-8.96 3.566c0 0 0 0.334 0 3.758s6.203 6.251 6.203 8.675c0 2.426-6.203 5.251-6.203 8.677 0 3.424 0 3.758 0 3.758 0 1.262 4.011 3.565 8.96 3.565s8.96-2.302 8.96-3.566c0 0 0-0.334 0-3.758 0-3.426-6.202-6.251-6.202-8.677 0-2.422 6.202-5.251 6.202-8.674zM9.504 3.726c1.114-0.702 3.202-1.733 6.582-1.733 3.382 0 6.41 1.733 6.41 1.733 0.227 0.138 1.117 0.614 0.507 0.974-1.342 0.795-3.966 1.632-7.005 1.632s-5.573-0.923-6.915-1.718c-0.61-0.362 0.421-0.888 0.421-0.888zM16.802 16c0 1.909 1.594 3.138 3.283 4.778 1.234 1.198 2.92 2.838 2.92 3.899v2.125c-1.55-0.773-6.194-1.53-6.194-4.006 0-1.254-1.622-1.254-1.622 0 0 2.477-4.643 3.234-6.194 4.006v-2.125c0-1.059 1.688-2.701 2.922-3.899 1.688-1.64 3.282-2.869 3.282-4.778s-1.594-3.138-3.282-4.778c-1.234-1.198-2.922-2.84-2.922-3.898l-0.075-1.6c1.642 0.883 4.245 1.726 7.080 1.726s5.451-0.843 7.093-1.726l-0.088 1.6c0 1.058-1.688 2.699-2.92 3.898-1.69 1.64-3.283 2.869-3.283 4.778z" fill="#000000"></path>
</svg>