<?xml version="1.0" encoding="utf-8"?>
<!DOCTYPE svg PUBLIC "-//W3C//DTD SVG 1.1//EN" "http://www.w3.org/Graphics/SVG/1.1/DTD/svg11.dtd">
<svg version="1.1" xmlns="http://www.w3.org/2000/svg" xmlns:xlink="http://www.w3.org/1999/xlink" width="32" height="32" viewBox="0 0 32 32">
	<path d="M19.891 0c2.144 0 3.216 1.462 3.216 3.133 0 2.086-1.862 4.018-4.285 4.018-2.032 0-3.216-1.2-3.16-3.182 0-1.672 1.408-3.968 4.229-3.968zM13.294 32c-1.693 0-2.933-1.043-1.749-5.637l1.942-8.146c0.338-1.304 0.394-1.827 0-1.827-0.509 0-2.704 0.901-4.003 1.789l-0.845-1.41c4.117-3.498 8.851-5.547 10.882-5.547 1.691 0 1.971 2.035 1.128 5.166l-2.226 8.563c-0.394 1.514-0.226 2.035 0.168 2.035 0.509 0 2.171-0.629 3.806-1.933l0.96 1.304c-4.002 4.074-8.373 5.642-10.064 5.642z" fill="#000000"></path>
</svg>