<?xml version="1.0" encoding="utf-8"?>
<!DOCTYPE svg PUBLIC "-//W3C//DTD SVG 1.1//EN" "http://www.w3.org/Graphics/SVG/1.1/DTD/svg11.dtd">
<svg version="1.1" xmlns="http://www.w3.org/2000/svg" xmlns:xlink="http://www.w3.org/1999/xlink" width="32" height="32" viewBox="0 0 32 32">
	<path d="M24.32 16c0 4.595-3.726 8.32-8.32 8.32-4.595 0-8.32-3.725-8.32-8.32 0-0.547 0.054-1.082 0.157-1.6h-5.597v11.059c0 2.374 1.923 4.301 4.301 4.301h18.918c2.374 0 4.301-1.925 4.301-4.301v-11.059h-5.595c0.101 0.518 0.155 1.053 0.155 1.6zM25.459 2.24h-18.918c-2.376 0-4.301 1.926-4.301 4.301v4.659h6.966c1.506-2.128 3.987-3.52 6.794-3.52s5.288 1.392 6.794 3.52h6.966v-4.659c0-2.374-1.926-4.301-4.301-4.301zM27.563 7.552c0 0.424-0.346 0.768-0.768 0.768h-2.302c-0.422 0-0.768-0.346-0.768-0.768v-2.304c0-0.424 0.347-0.768 0.768-0.768h2.302c0.424 0 0.768 0.346 0.768 0.768v2.304zM21.12 16c0-2.829-2.293-5.12-5.12-5.12s-5.12 2.291-5.12 5.12 2.293 5.12 5.12 5.12 5.12-2.291 5.12-5.12z" fill="#000000"></path>
</svg>