<?xml version="1.0" encoding="utf-8"?>
<!DOCTYPE svg PUBLIC "-//W3C//DTD SVG 1.1//EN" "http://www.w3.org/Graphics/SVG/1.1/DTD/svg11.dtd">
<svg version="1.1" xmlns="http://www.w3.org/2000/svg" xmlns:xlink="http://www.w3.org/1999/xlink" width="32" height="32" viewBox="0 0 32 32">
	<path d="M28.304 7.562c-0.803-4.765-5.152-7.947-9.71-7.106-4.56 0.84-8.406 4.506-7.603 9.27 0.174 1.026 0.653 2.632 1.221 3.784l-8.28 12.357c-0.306 0.456-0.478 1.278-0.387 1.826l0.533 3.154c0.093 0.547 0.597 0.915 1.12 0.819l2.426-0.446c0.525-0.098 1.189-0.558 1.478-1.026l3.304-5.33 2.216-0.41 3.822-6.205c1.258 0.222 3.059 0.147 4.125-0.050 4.562-0.842 6.541-5.874 5.736-10.638zM24.266 10.003c-1.254 1.87-2.533 0.552-4.325-0.76-1.79-1.31-3.416-2.117-2.162-3.987 1.254-1.872 3.722-2.328 5.514-1.016 1.792 1.31 2.227 3.893 0.973 5.763z" fill="#000000"></path>
</svg>