<?xml version="1.0" encoding="utf-8"?>
<!DOCTYPE svg PUBLIC "-//W3C//DTD SVG 1.1//EN" "http://www.w3.org/Graphics/SVG/1.1/DTD/svg11.dtd">
<svg version="1.1" xmlns="http://www.w3.org/2000/svg" xmlns:xlink="http://www.w3.org/1999/xlink" width="32" height="32" viewBox="0 0 32 32">
	<path d="M12.598 20.123c-0.67 0.602-1.958 1.808-4.102 1.808-2.53 0-4.966-2.218-4.966-5.765 0-4.546 2.912-6.011 5.149-6.011 3.226 0 3.933 1.946 4.811 4.643l1.173 3.696c1.171 3.582 3.371 6.464 9.712 6.464 4.547 0 7.626-1.403 7.626-5.098 0-2.994-1.688-4.546-4.838-5.285l-2.346-0.515c-1.613-0.37-2.090-1.034-2.090-2.144 0-1.256 0.989-1.995 2.602-1.995 1.76 0 2.712 0.666 2.859 2.254l3.666-0.443c-0.293-3.325-2.565-4.693-6.304-4.693-3.299 0-6.523 1.256-6.523 5.283 0 2.512 1.21 4.101 4.25 4.84l2.494 0.59c1.869 0.443 2.493 1.221 2.493 2.293 0 1.366-1.32 1.92-3.813 1.92-3.701 0-5.562-1.958-6.44-4.654l-1.211-3.696c-1.539-4.802-3.357-6.576-8.232-6.576-4.346 0-8.566 3.437-8.566 9.274 0 5.618 4.051 8.646 8.31 8.646 3.080 0 4.643-1.082 5.408-1.637l-1.12-3.2z" fill="#000000"></path>
</svg>