<?xml version="1.0" encoding="utf-8"?>
<!DOCTYPE svg PUBLIC "-//W3C//DTD SVG 1.1//EN" "http://www.w3.org/Graphics/SVG/1.1/DTD/svg11.dtd">
<svg version="1.1" xmlns="http://www.w3.org/2000/svg" xmlns:xlink="http://www.w3.org/1999/xlink" width="32" height="32" viewBox="0 0 32 32">
	<path d="M16 0.64c-8.483 0-15.36 6.877-15.36 15.36s6.877 15.36 15.36 15.36 15.36-6.877 15.36-15.36-6.877-15.36-15.36-15.36zM20.232 20.528c-3.203 0-4.315-1.456-4.906-3.267l-0.595-1.867c-0.443-1.362-0.802-2.347-2.43-2.347-1.13 0-2.602 0.741-2.602 3.037 0 1.792 1.232 2.912 2.509 2.912 1.085 0 1.734-0.61 2.074-0.914l0.566 1.618c-0.386 0.28-1.174 0.829-2.731 0.829-2.152 0-4.2-1.531-4.2-4.368 0-2.95 2.133-4.686 4.33-4.686 2.462 0 3.379 0.898 4.158 3.323l0.611 1.866c0.445 1.365 1.384 2.354 3.254 2.354 1.259 0 1.926-0.282 1.926-0.97 0-0.542-0.315-0.934-1.259-1.158l-1.259-0.299c-1.538-0.373-2.149-1.176-2.149-2.446 0-2.034 1.63-2.669 3.298-2.669 1.89 0 3.037 0.691 3.184 2.37l-1.851 0.226c-0.074-0.803-0.555-1.139-1.445-1.139-0.814 0-1.314 0.373-1.314 1.008 0 0.562 0.24 0.898 1.056 1.083l1.184 0.261c1.592 0.373 2.445 1.158 2.445 2.67-0.002 1.867-1.558 2.576-3.854 2.576z" fill="#000000"></path>
</svg>