<?xml version="1.0" encoding="utf-8"?>
<!DOCTYPE svg PUBLIC "-//W3C//DTD SVG 1.1//EN" "http://www.w3.org/Graphics/SVG/1.1/DTD/svg11.dtd">
<svg version="1.1" xmlns="http://www.w3.org/2000/svg" xmlns:xlink="http://www.w3.org/1999/xlink" width="32" height="32" viewBox="0 0 32 32">
	<path d="M11.84 6.4h-2.88c-1.76 0-2.56 0.8-2.56 2.56v2.88c0 1.76 0.8 2.56 2.56 2.56h2.88c1.76 0 2.56-0.8 2.56-2.56v-2.88c0-1.76-0.8-2.56-2.56-2.56zM23.040 6.4h-2.88c-1.76 0-2.56 0.8-2.56 2.56v2.88c0 1.76 0.8 2.56 2.56 2.56h2.88c1.76 0 2.56-0.8 2.56-2.56v-2.88c0-1.76-0.8-2.56-2.56-2.56zM11.84 17.6h-2.88c-1.76 0-2.56 0.8-2.56 2.56v2.88c0 1.76 0.8 2.56 2.56 2.56h2.88c1.76 0 2.56-0.8 2.56-2.56v-2.88c0-1.76-0.8-2.56-2.56-2.56zM23.040 17.6h-2.88c-1.76 0-2.56 0.8-2.56 2.56v2.88c0 1.76 0.8 2.56 2.56 2.56h2.88c1.76 0 2.56-0.8 2.56-2.56v-2.88c0-1.76-0.8-2.56-2.56-2.56z" fill="#000000"></path>
</svg>