<?xml version="1.0" encoding="utf-8"?>
<!DOCTYPE svg PUBLIC "-//W3C//DTD SVG 1.1//EN" "http://www.w3.org/Graphics/SVG/1.1/DTD/svg11.dtd">
<svg version="1.1" xmlns="http://www.w3.org/2000/svg" xmlns:xlink="http://www.w3.org/1999/xlink" width="32" height="32" viewBox="0 0 32 32">
	<path d="M15.803 1.282c-8.128 0.109-14.63 6.786-14.522 14.915 0.109 8.131 6.787 14.63 14.915 14.523 8.13-0.109 14.632-6.787 14.522-14.915-0.109-8.131-6.787-14.632-14.915-14.523zM15.83 3.2c2.192-0.030 4.262 0.496 6.080 1.442l-1.981 3.302c-1.187-0.578-2.52-0.904-3.93-0.904-1.408 0-2.741 0.326-3.928 0.906l-1.979-3.301c1.718-0.896 3.667-1.416 5.738-1.445zM7.946 19.928l-3.299 1.978c-0.896-1.717-1.416-3.666-1.443-5.734-0.030-2.194 0.496-4.264 1.442-6.080l3.301 1.982c-0.579 1.186-0.906 2.517-0.906 3.926 0 1.408 0.326 2.741 0.906 3.928zM16.171 28.798c-2.192 0.030-4.264-0.496-6.080-1.442l1.981-3.302c1.187 0.579 2.52 0.906 3.928 0.906 1.41 0 2.742-0.325 3.928-0.904l1.979 3.299c-1.718 0.894-3.666 1.414-5.736 1.443zM16 23.038c-3.888 0-7.038-3.152-7.038-7.038 0-3.888 3.152-7.040 7.038-7.040 3.89 0 7.040 3.152 7.040 7.040s-3.15 7.038-7.040 7.038zM24.054 19.928c0.579-1.187 0.906-2.52 0.906-3.928 0-1.41-0.326-2.741-0.906-3.928l3.299-1.981c0.896 1.718 1.418 3.666 1.445 5.736 0.029 2.194-0.498 4.264-1.443 6.080l-3.301-1.979z" fill="#000000"></path>
</svg>