<?xml version="1.0" encoding="utf-8"?>
<!DOCTYPE svg PUBLIC "-//W3C//DTD SVG 1.1//EN" "http://www.w3.org/Graphics/SVG/1.1/DTD/svg11.dtd">
<svg version="1.1" xmlns="http://www.w3.org/2000/svg" xmlns:xlink="http://www.w3.org/1999/xlink" width="32" height="32" viewBox="0 0 32 32">
	<path d="M11.496 30.672c1.262 0.816 2.725 1.368 4.504 1.325 1.779 0.043 3.24-0.509 4.502-1.325v-3.312h-9.006v3.312zM20.314 25.438c0-6.97 7.41-9.2 6.854-16.142-0.349-4.381-3.317-9.296-11.168-9.296s-10.819 4.915-11.168 9.296c-0.555 6.944 6.853 9.173 6.853 16.142h8.629zM8.221 9.549c0.333-4.158 3.162-6.267 7.779-6.267s7.446 2.109 7.778 6.267c0.181 2.277-1.128 3.795-2.896 6.282-1.301 1.834-2.84 3.998-3.56 6.818h-2.645c-0.72-2.819-2.258-4.982-3.562-6.818-1.766-2.488-3.075-4.005-2.894-6.282z" fill="#000000"></path>
</svg>