<?xml version="1.0" encoding="utf-8"?>
<!DOCTYPE svg PUBLIC "-//W3C//DTD SVG 1.1//EN" "http://www.w3.org/Graphics/SVG/1.1/DTD/svg11.dtd">
<svg version="1.1" xmlns="http://www.w3.org/2000/svg" xmlns:xlink="http://www.w3.org/1999/xlink" width="32" height="32" viewBox="0 0 32 32">
	<path d="M16 0.64c-8.483 0-15.36 6.877-15.36 15.36s6.877 15.36 15.36 15.36 15.36-6.877 15.36-15.36-6.877-15.36-15.36-15.36zM12.24 22.366h-3.11v-10.008h3.11v10.008zM10.666 11.13c-0.982 0-1.618-0.698-1.618-1.557 0-0.88 0.654-1.555 1.658-1.555s1.618 0.675 1.637 1.555c0.002 0.861-0.634 1.557-1.677 1.557zM23.598 22.366h-3.109v-5.547c0-1.29-0.451-2.168-1.576-2.168-0.859 0-1.37 0.594-1.597 1.166-0.082 0.203-0.102 0.491-0.102 0.776v5.771h-3.112v-6.816c0-1.248-0.040-2.293-0.082-3.192h2.701l0.144 1.39h0.061c0.41-0.654 1.413-1.616 3.091-1.616 2.046 0 3.581 1.37 3.581 4.317v5.918z" fill="#000000"></path>
</svg>