<?xml version="1.0" encoding="utf-8"?>
<!DOCTYPE svg PUBLIC "-//W3C//DTD SVG 1.1//EN" "http://www.w3.org/Graphics/SVG/1.1/DTD/svg11.dtd">
<svg version="1.1" xmlns="http://www.w3.org/2000/svg" xmlns:xlink="http://www.w3.org/1999/xlink" width="32" height="32" viewBox="0 0 32 32">
	<path d="M8 20.8h-1.6c-0.883 0-1.6 0.715-1.6 1.6s0.717 1.6 1.6 1.6h1.6c0.883 0 1.6-0.715 1.6-1.6s-0.717-1.6-1.6-1.6zM8 14.4h-1.6c-0.883 0-1.6 0.717-1.6 1.6s0.717 1.6 1.6 1.6h1.6c0.883 0 1.6-0.717 1.6-1.6s-0.717-1.6-1.6-1.6zM8 8h-1.6c-0.883 0-1.6 0.717-1.6 1.6s0.717 1.6 1.6 1.6h1.6c0.883 0 1.6-0.717 1.6-1.6s-0.717-1.6-1.6-1.6zM14.4 11.2h11.2c0.885 0 1.6-0.717 1.6-1.6s-0.715-1.6-1.6-1.6h-11.2c-0.883 0-1.6 0.717-1.6 1.6s0.717 1.6 1.6 1.6zM25.6 14.4h-11.2c-0.883 0-1.6 0.717-1.6 1.6s0.717 1.6 1.6 1.6h11.2c0.885 0 1.6-0.717 1.6-1.6s-0.715-1.6-1.6-1.6zM25.6 20.8h-11.2c-0.883 0-1.6 0.715-1.6 1.6s0.717 1.6 1.6 1.6h11.2c0.885 0 1.6-0.715 1.6-1.6s-0.715-1.6-1.6-1.6z" fill="#000000"></path>
</svg>