<?xml version="1.0" encoding="utf-8"?>
<!DOCTYPE svg PUBLIC "-//W3C//DTD SVG 1.1//EN" "http://www.w3.org/Graphics/SVG/1.1/DTD/svg11.dtd">
<svg version="1.1" xmlns="http://www.w3.org/2000/svg" xmlns:xlink="http://www.w3.org/1999/xlink" width="32" height="32" viewBox="0 0 32 32">
	<path d="M25.282 12.803h-2.882v-2.24c0-4.635-2.134-7.36-6.4-7.36-4.264 0-6.4 2.725-6.4 7.36v2.24h-3.2c-0.883 0-1.6 1.035-1.6 1.92v12.48c0 0.88 0.686 1.822 1.523 2.091l1.914 0.619c0.837 0.27 2.242 0.491 3.123 0.491h9.28c0.88 0 2.286-0.221 3.123-0.491l1.914-0.619c0.838-0.269 1.523-1.211 1.523-2.091v-12.48c0-0.885-1.035-1.92-1.918-1.92zM12.8 9.923c0-2.312 1.277-3.52 3.2-3.52 1.925 0 3.2 1.208 3.2 3.52v2.88h-6.4v-2.88z" fill="#000000"></path>
</svg>