<?xml version="1.0" encoding="utf-8"?>
<!DOCTYPE svg PUBLIC "-//W3C//DTD SVG 1.1//EN" "http://www.w3.org/Graphics/SVG/1.1/DTD/svg11.dtd">
<svg version="1.1" xmlns="http://www.w3.org/2000/svg" xmlns:xlink="http://www.w3.org/1999/xlink" width="32" height="32" viewBox="0 0 32 32">
	<path d="M25.28 12.8h-2.88v-3.84c0-4.635-2.136-7.36-6.4-7.36-4.266 0-6.4 2.725-6.4 7.36v0.64h3.2v-1.28c0-2.312 1.275-3.52 3.2-3.52 1.923 0 3.2 1.208 3.2 3.52v4.48h-12.8c-0.885 0-1.6 1.035-1.6 1.92v12.48c0 0.88 0.686 1.821 1.523 2.091l1.914 0.619c0.838 0.269 2.243 0.49 3.123 0.49h9.28c0.882 0 2.286-0.221 3.123-0.491l1.914-0.619c0.837-0.269 1.523-1.21 1.523-2.090v-12.48c0-0.885-1.035-1.92-1.92-1.92z" fill="#000000"></path>
</svg>