<?xml version="1.0" encoding="utf-8"?>
<!DOCTYPE svg PUBLIC "-//W3C//DTD SVG 1.1//EN" "http://www.w3.org/Graphics/SVG/1.1/DTD/svg11.dtd">
<svg version="1.1" xmlns="http://www.w3.org/2000/svg" xmlns:xlink="http://www.w3.org/1999/xlink" width="32" height="32" viewBox="0 0 32 32">
	<path d="M19.462 28.574c-0.045 0.496 0.347 0.934 0.874 0.978l6.376 0.523c0.525 0.043 0.994-0.325 1.038-0.821l0.499-5.258-8.29-0.683-0.498 5.261zM3.75 23.998l0.498 5.258c0.046 0.496 0.515 0.864 1.040 0.821l6.376-0.523c0.525-0.043 0.918-0.483 0.872-0.978l-0.499-5.259-8.286 0.682zM2.93 15.333l0.514 5.424 8.29-0.682-0.515-5.419c-0.011-0.13-0.018-0.266-0.018-0.398 0-2.49 2.154-4.514 4.8-4.514s4.8 2.026 4.8 4.514c0 0.133-0.006 0.267-0.019 0.398l-0.512 5.419 8.288 0.682 0.514-5.424c0.032-0.358 0.050-0.718 0.050-1.075 0-6.803-5.886-12.338-13.12-12.338s-13.12 5.534-13.12 12.338c0 0.357 0.018 0.717 0.050 1.075z" fill="#000000"></path>
</svg>