<?xml version="1.0" encoding="utf-8"?>
<!DOCTYPE svg PUBLIC "-//W3C//DTD SVG 1.1//EN" "http://www.w3.org/Graphics/SVG/1.1/DTD/svg11.dtd">
<svg version="1.1" xmlns="http://www.w3.org/2000/svg" xmlns:xlink="http://www.w3.org/1999/xlink" width="32" height="32" viewBox="0 0 32 32">
	<path d="M2.55 8.458c0.781 0.421 11.598 6.23 12.002 6.446 0.402 0.216 0.923 0.32 1.448 0.32 0.526 0 1.048-0.104 1.45-0.322 0.403-0.216 11.219-6.026 12-6.446 0.782-0.419 1.522-1.736 0.086-1.736h-27.070c-1.435 0-0.698 1.317 0.085 1.738zM29.781 11.658c-0.888 0.464-11.787 6.162-12.331 6.446s-0.923 0.322-1.45 0.322c-0.525 0-0.904-0.037-1.448-0.322s-11.445-5.984-12.331-6.446c-0.626-0.326-0.621 0.056-0.621 0.35s0 11.736 0 11.736c0 0.672 0.894 1.536 1.587 1.536h25.627c0.694 0 1.586-0.864 1.586-1.534 0 0 0-11.442 0-11.736 0-0.296 0.006-0.678-0.619-0.352z" fill="#000000"></path>
</svg>