<?xml version="1.0" encoding="utf-8"?>
<!DOCTYPE svg PUBLIC "-//W3C//DTD SVG 1.1//EN" "http://www.w3.org/Graphics/SVG/1.1/DTD/svg11.dtd">
<svg version="1.1" xmlns="http://www.w3.org/2000/svg" xmlns:xlink="http://www.w3.org/1999/xlink" width="32" height="32" viewBox="0 0 32 32">
	<path d="M25.6 11.589h-0.96c-0.354 0-0.64 0.288-0.64 0.64v4.411c0 2.139-1.685 5.76-8 5.76s-8-3.621-8-5.76v-4.411c0-0.352-0.29-0.64-0.64-0.64h-0.96c-0.352 0-0.64 0.288-0.64 0.64v4.411c0 3.579 2.63 7.408 8.64 7.936v4.224h-4.162c-0.35 0-0.638 0.288-0.638 0.64v1.92c0 0.352 0.288 0.64 0.638 0.64h11.52c0.354 0 0.64-0.288 0.64-0.64v-1.92c0-0.354-0.288-0.64-0.64-0.64h-4.158v-4.224c6.011-0.528 8.64-4.358 8.64-7.936v-4.411c0-0.352-0.288-0.64-0.64-0.64zM16 19.2c3.755 0 4.8-1.542 4.8-2.56v-5.051h-9.6v5.051c0 1.018 1.045 2.56 4.8 2.56zM20.8 2.56c0-1.019-1.045-2.56-4.8-2.56s-4.8 1.541-4.8 2.56v6.789h9.6v-6.789z" fill="#000000"></path>
</svg>