<?xml version="1.0" encoding="utf-8"?>
<!DOCTYPE svg PUBLIC "-//W3C//DTD SVG 1.1//EN" "http://www.w3.org/Graphics/SVG/1.1/DTD/svg11.dtd">
<svg version="1.1" xmlns="http://www.w3.org/2000/svg" xmlns:xlink="http://www.w3.org/1999/xlink" width="32" height="32" viewBox="0 0 32 32">
	<path d="M15.274 27.613h1.526v3.427c10.418-1.094 15.971-11.426 15.074-18.706-0.902-7.28-8.722-12.307-17.51-11.23-8.784 1.080-15.147 7.854-14.246 15.134 0.819 6.624 7.36 11.381 15.157 11.374zM25.112 20.574h-2.931v-7.925c0-0.317-0.029-0.618-0.085-0.891-0.046-0.238-0.134-0.437-0.262-0.606-0.122-0.16-0.301-0.291-0.528-0.39-0.243-0.106-0.581-0.16-0.997-0.16-0.859 0-1.531 0.224-2 0.664-0.469 0.437-0.693 1.013-0.693 1.758v7.55h-2.931v-7.925c0-0.33-0.030-0.632-0.093-0.901-0.054-0.243-0.146-0.446-0.277-0.619-0.123-0.162-0.286-0.286-0.502-0.379-0.23-0.098-0.544-0.149-0.93-0.149-0.499 0-0.928 0.093-1.27 0.275-0.357 0.19-0.65 0.419-0.867 0.678-0.219 0.262-0.379 0.534-0.477 0.808-0.099 0.275-0.147 0.498-0.147 0.661v7.55h-2.93v-12.312h2.813v0.962c0.917-0.813 2.088-1.224 3.488-1.224 0.816 0 1.568 0.163 2.238 0.485 0.49 0.235 0.886 0.587 1.181 1.046 0.368-0.397 0.806-0.725 1.301-0.974 0.728-0.371 1.534-0.557 2.4-0.557 0.643 0 1.237 0.067 1.766 0.2 0.547 0.139 1.029 0.362 1.429 0.661 0.413 0.309 0.738 0.714 0.966 1.202 0.226 0.48 0.341 1.054 0.341 1.709v8.803z" fill="#000000"></path>
</svg>