<?xml version="1.0" encoding="utf-8"?>
<!DOCTYPE svg PUBLIC "-//W3C//DTD SVG 1.1//EN" "http://www.w3.org/Graphics/SVG/1.1/DTD/svg11.dtd">
<svg version="1.1" xmlns="http://www.w3.org/2000/svg" xmlns:xlink="http://www.w3.org/1999/xlink" width="32" height="32" viewBox="0 0 32 32">
	<path d="M9.776 4.366v18.987c-1.034-0.216-2.237-0.134-3.43 0.307-2.683 0.997-3.63 3.424-2.918 5.418 0.71 1.995 2.811 2.802 5.494 1.805 2.278-0.846 3.771-2.722 3.733-4.491 0 0 0-10.069 0-15.685l11.362-2.603v12.048c-1.034-0.216-2.237-0.134-3.43 0.307-2.685 0.997-3.632 3.424-2.92 5.418 0.712 1.995 2.811 2.802 5.496 1.805 2.28-0.846 3.77-2.722 3.734-4.491v-22.502l-17.12 3.678z" fill="#000000"></path>
</svg>