<?xml version="1.0" encoding="utf-8"?>
<!DOCTYPE svg PUBLIC "-//W3C//DTD SVG 1.1//EN" "http://www.w3.org/Graphics/SVG/1.1/DTD/svg11.dtd">
<svg version="1.1" xmlns="http://www.w3.org/2000/svg" xmlns:xlink="http://www.w3.org/1999/xlink" width="32" height="32" viewBox="0 0 32 32">
	<path d="M24 1.6h-16c-1.76 0-3.2 1.44-3.2 3.2v22.4c0 1.76 1.44 3.2 3.2 3.2h16c1.762 0 3.2-1.44 3.2-3.2v-22.4c0-1.76-1.438-3.2-3.2-3.2zM20.474 16.834c-0.379 0.592-0.581 0.339-0.467 0 0.301-0.893 0.29-3.595-2.227-3.99v8.341c0 1.555-0.896 2.531-2.8 3.142-1.85 0.592-3.92-0.024-4.405-1.354-0.483-1.328 0.605-2.944 2.43-3.61 1.019-0.37 2.053-0.366 2.85-0.058v-11.766h1.925c0 2.021 5.41 5.070 2.694 9.294z" fill="#000000"></path>
</svg>