<?xml version="1.0" encoding="utf-8"?>
<!DOCTYPE svg PUBLIC "-//W3C//DTD SVG 1.1//EN" "http://www.w3.org/Graphics/SVG/1.1/DTD/svg11.dtd">
<svg version="1.1" xmlns="http://www.w3.org/2000/svg" xmlns:xlink="http://www.w3.org/1999/xlink" width="32" height="32" viewBox="0 0 32 32">
	<path d="M29.634 2.366c-0.624-0.626-1.637-0.626-2.262 0l-25.005 25.005c-0.626 0.626-0.626 1.638 0 2.262 0.312 0.312 0.722 0.469 1.131 0.469s0.819-0.157 1.131-0.469l25.005-25.005c0.626-0.626 0.626-1.64 0-2.262zM22.722 14.709c2.222 3.014 2.909 5.632 2.494 6.046-0.416 0.413-3.030-0.274-6.045-2.498l-8.842 8.843c6.698 2.941 15.403-3.226 16.968-4.79 1.48-1.477 0.155-5.298-2.97-9.208l-1.606 1.606zM13.867 12.702c-1.758-2.651-2.288-4.835-1.91-5.214 0.373-0.376 2.56 0.155 5.211 1.914l1.637-1.637c-3.622-2.678-7.032-3.733-8.41-2.35-1.486 1.482-7.118 9.403-5.171 15.931l8.643-8.643z" fill="#000000"></path>
</svg>