<?xml version="1.0" encoding="utf-8"?>
<!DOCTYPE svg PUBLIC "-//W3C//DTD SVG 1.1//EN" "http://www.w3.org/Graphics/SVG/1.1/DTD/svg11.dtd">
<svg version="1.1" xmlns="http://www.w3.org/2000/svg" xmlns:xlink="http://www.w3.org/1999/xlink" width="32" height="32" viewBox="0 0 32 32">
	<path d="M8.437 11.062c0.322 0 0.632 0.048 0.923 0.139 1.104-1.237 2.328-2.363 3.653-3.362-0.054-0.232-0.088-0.475-0.088-0.726 0-0.349 0.058-0.682 0.163-0.992-1.483-1.066-3.099-1.958-4.814-2.65-1.611 0.995-3.014 2.293-4.133 3.813 0.83 1.47 1.819 2.842 2.941 4.091 0.411-0.2 0.87-0.314 1.355-0.314zM5.306 14.194c0-0.438 0.091-0.858 0.254-1.237-1.003-1.104-1.915-2.294-2.714-3.565-1 1.987-1.566 4.232-1.566 6.608 0 2.754 0.758 5.328 2.074 7.531 0.469-2.648 1.362-5.152 2.592-7.446-0.4-0.525-0.64-1.179-0.64-1.891zM16.056 3.981c0.829 0 1.578 0.323 2.138 0.846 1.634-0.702 3.355-1.242 5.146-1.586-2.162-1.245-4.666-1.962-7.339-1.962-1.822 0-3.566 0.334-5.176 0.941 1.278 0.632 2.498 1.366 3.642 2.198 0.467-0.277 1.010-0.438 1.59-0.438zM20.741 18.733c0.195-0.406 0.472-0.765 0.814-1.050-0.925-2.845-2.389-5.446-4.275-7.686-0.376 0.16-0.789 0.248-1.224 0.248-0.678 0-1.306-0.219-1.819-0.586-1.136 0.862-2.186 1.83-3.141 2.886 0.298 0.478 0.472 1.042 0.472 1.648 0 0.328-0.050 0.642-0.142 0.939 2.747 1.835 5.909 3.094 9.315 3.6zM24.803 22.962c0.042 0.592 0.066 1.19 0.066 1.794 0 1.064-0.069 2.109-0.197 3.138 2.498-1.824 4.397-4.411 5.357-7.422-1.136 0.275-2.301 0.472-3.49 0.586-0.28 0.856-0.917 1.55-1.736 1.906zM20.006 20.837c-3.634-0.602-7.003-1.987-9.934-3.974-0.477 0.293-1.034 0.464-1.634 0.464-0.221 0-0.434-0.024-0.642-0.067-1.403 2.662-2.301 5.632-2.56 8.778 1.402 1.502 3.112 2.712 5.034 3.525 2.384-3.666 5.718-6.701 9.736-8.725zM25.882 5.091c-2.358 0.227-4.611 0.819-6.709 1.709 0.013 0.102 0.018 0.208 0.018 0.314 0 0.494-0.117 0.96-0.322 1.374 2.096 2.461 3.723 5.328 4.752 8.466 1.272 0.024 2.362 0.803 2.83 1.912 1.418-0.144 2.797-0.416 4.126-0.806 0.091-0.672 0.142-1.358 0.142-2.059 0-4.326-1.867-8.218-4.838-10.909zM21.582 22.51c-3.752 1.757-6.886 4.462-9.158 7.77 1.144 0.286 2.342 0.44 3.576 0.44 2.222 0 4.325-0.494 6.213-1.374 0.302-1.483 0.464-3.018 0.464-4.59 0-0.566-0.027-1.13-0.069-1.688-0.378-0.12-0.725-0.31-1.026-0.557z" fill="#000000"></path>
</svg>