<?xml version="1.0" encoding="utf-8"?>
<!DOCTYPE svg PUBLIC "-//W3C//DTD SVG 1.1//EN" "http://www.w3.org/Graphics/SVG/1.1/DTD/svg11.dtd">
<svg version="1.1" xmlns="http://www.w3.org/2000/svg" xmlns:xlink="http://www.w3.org/1999/xlink" width="32" height="32" viewBox="0 0 32 32">
	<path d="M29.904 19.754l-2.763-2.464c-0.8-0.714-0.8-1.878 0-2.592l2.763-2.462c0.8-0.714 0.586-1.378-0.475-1.478l-3.662-0.347c-1.061-0.101-1.632-1.013-1.267-2.027l1.944-5.411c0.365-1.014-0.082-1.384-0.99-0.821l-4.322 2.672c-0.909 0.563-2.083 0.256-2.61-0.683l-1.566-2.794c-0.525-0.939-1.395-0.944-1.931-0.011l-1.454 2.531c-0.536 0.933-1.768 1.331-2.738 0.885l-2.56-1.176c-0.971-0.445-1.717 0.070-1.659 1.149l0.139 2.584c0.058 1.077-0.738 2.187-1.766 2.464l-2.472 0.664c-1.029 0.278-1.218 1.088-0.418 1.802l2.763 2.462c0.8 0.712 0.8 1.878 0 2.59l-2.763 2.461c-0.8 0.715-0.589 1.403 0.469 1.531l3.352 0.406c1.058 0.131 1.648 1.075 1.31 2.098l-1.72 5.213c-0.338 1.026 0.144 1.426 1.069 0.888l3.941-2.278c0.926-0.538 2.17-0.24 2.765 0.653l1.637 2.459c0.594 0.898 1.488 0.846 1.982-0.109l1.438-2.771c0.498-0.957 1.685-1.347 2.638-0.869l2.774 1.387c0.957 0.478 1.691-0.013 1.634-1.091l-0.139-2.584c-0.058-1.078 0.738-2.187 1.766-2.466l2.47-0.662c1.032-0.28 1.221-1.090 0.421-1.802zM17.6 22.712h-3.2v-3.36h3.2v3.36zM17.6 17.594h-3.2v-8.32h3.2v8.32z" fill="#000000"></path>
</svg>