<?xml version="1.0" encoding="utf-8"?>
<!DOCTYPE svg PUBLIC "-//W3C//DTD SVG 1.1//EN" "http://www.w3.org/Graphics/SVG/1.1/DTD/svg11.dtd">
<svg version="1.1" xmlns="http://www.w3.org/2000/svg" xmlns:xlink="http://www.w3.org/1999/xlink" width="32" height="32" viewBox="0 0 32 32">
	<path d="M29.314 15.234l-11.939-7.92c-0.917-0.611-1.669-0.162-1.669 0.998v15.374c0 1.162 0.752 1.611 1.669 0.998l11.939-7.918c0 0 0.446-0.32 0.446-0.766s-0.446-0.766-0.446-0.766zM14.794 15.234l-11.526-7.922c-0.915-0.61-1.666-0.16-1.666 1v15.374c0 1.162 0.75 1.611 1.667 0.998l11.526-7.918c0 0 0.446-0.32 0.446-0.766s-0.448-0.766-0.448-0.766z" fill="#000000"></path>
</svg>