<?xml version="1.0" encoding="utf-8"?>
<!DOCTYPE svg PUBLIC "-//W3C//DTD SVG 1.1//EN" "http://www.w3.org/Graphics/SVG/1.1/DTD/svg11.dtd">
<svg version="1.1" xmlns="http://www.w3.org/2000/svg" xmlns:xlink="http://www.w3.org/1999/xlink" width="32" height="32" viewBox="0 0 32 32">
	<path d="M27.763 7.304c-4.966-3.302-10.542-4.443-17.155-2.549-5.162 1.48-9.893 7.35-10.259 12.378-0.434 5.944 4.197 11.034 12.349 11.026 8.79-0.010 12.080-4.23 12.154-5.512 0.072-1.283-3.43-3.654-1.176-6.093 2.824-3.054 5.338-0.451 6.861-0.819 1.523-0.365 2.294-5.058-2.773-8.43zM17.565 22.213c-1.33 0-2.408-1.075-2.408-2.4 0-1.326 1.078-2.4 2.408-2.4s2.406 1.074 2.406 2.4c-0.002 1.325-1.077 2.4-2.406 2.4z" fill="#000000"></path>
</svg>