<?xml version="1.0" encoding="utf-8"?>
<!DOCTYPE svg PUBLIC "-//W3C//DTD SVG 1.1//EN" "http://www.w3.org/Graphics/SVG/1.1/DTD/svg11.dtd">
<svg version="1.1" xmlns="http://www.w3.org/2000/svg" xmlns:xlink="http://www.w3.org/1999/xlink" width="32" height="32" viewBox="0 0 32 32">
	<path d="M7.938 32c-2.138 0-4.139-0.906-5.586-2.354-2.8-2.8-3.582-7.69 0.344-11.616 2.302-2.299 11.518-11.515 16.118-16.115 1.634-1.634 3.71-2.264 5.701-1.73 1.954 0.522 3.557 2.123 4.080 4.078 0.533 1.99-0.099 4.069-1.731 5.701l-15.411 15.413c-0.88 0.88-1.874 1.402-2.874 1.506-0.989 0.104-1.933-0.214-2.595-0.875-1.2-1.198-1.37-3.454 0.624-5.446l10.824-10.827c0.445-0.443 1.166-0.443 1.611 0 0.445 0.445 0.445 1.166 0 1.611l-10.826 10.826c-0.936 0.936-1.022 1.83-0.624 2.229 0.174 0.173 0.44 0.253 0.746 0.221 0.469-0.050 1.003-0.354 1.502-0.853l15.411-15.411c1.058-1.058 1.462-2.301 1.141-3.502-0.317-1.182-1.286-2.152-2.469-2.469-1.202-0.322-2.445 0.085-3.502 1.141-4.598 4.6-13.814 13.816-16.115 16.115-3.002 3.002-2.283 6.456-0.346 8.395 1.939 1.938 5.394 2.658 8.397-0.346l16.117-16.115c0.443-0.445 1.166-0.445 1.61 0 0.445 0.445 0.445 1.166 0 1.61l-16.117 16.117c-1.899 1.901-4.024 2.698-6.030 2.698z" fill="#000000"></path>
</svg>