<?xml version="1.0" encoding="utf-8"?>
<!DOCTYPE svg PUBLIC "-//W3C//DTD SVG 1.1//EN" "http://www.w3.org/Graphics/SVG/1.1/DTD/svg11.dtd">
<svg version="1.1" xmlns="http://www.w3.org/2000/svg" xmlns:xlink="http://www.w3.org/1999/xlink" width="32" height="32" viewBox="0 0 32 32">
	<path d="M26.968 7.736c0.435 0.822 0.651 1.838 0.651 3.059 0 2.771-1.168 5.008-3.501 6.706-2.336 1.699-5.598 2.547-9.789 2.547h-0.981c-0.738 0-1.475 0.579-1.64 1.288l-1.178 5.022c-0.165 0.71-0.902 1.291-1.64 1.291h-2.147l-0.192 0.821c-0.166 0.709 0.301 1.29 1.037 1.29h3.438c0.738 0 1.477-0.579 1.638-1.29l1.179-5.024c0.166-0.706 0.902-1.286 1.64-1.286h0.981c4.19 0 7.453-0.848 9.787-2.549 2.338-1.696 3.507-3.931 3.507-6.706 0-1.221-0.216-2.237-0.651-3.058-0.434-0.816-1.066-1.482-1.89-1.989-0.088-0.053-0.16-0.074-0.251-0.123zM8.389 24.246l1.179-5.024c0.166-0.706 0.901-1.286 1.64-1.286h0.981c4.19 0 7.453-0.848 9.787-2.549 2.334-1.698 3.502-3.933 3.502-6.706 0-1.221-0.216-2.237-0.653-3.058-0.434-0.816-1.066-1.482-1.888-1.989-0.843-0.515-1.834-0.874-2.981-1.083-1.147-0.206-2.493-0.312-4.038-0.312h-7.16c-0.739 0-1.477 0.576-1.643 1.286l-4.842 20.718c-0.166 0.71 0.301 1.291 1.037 1.291h3.438c0.739 0 1.478-0.579 1.64-1.29zM11.198 12.226l1.034-4.398c0.166-0.709 0.904-1.288 1.638-1.288h1.126c1.31 0 2.306 0.221 2.971 0.659 0.667 0.435 1.002 1.106 1.002 2.016 0 1.374-0.52 2.437-1.552 3.182-1.034 0.744-2.47 1.12-4.326 1.12h-0.851c-0.739 0-1.205-0.582-1.042-1.291z" fill="#000000"></path>
</svg>