<?xml version="1.0" encoding="utf-8"?>
<!DOCTYPE svg PUBLIC "-//W3C//DTD SVG 1.1//EN" "http://www.w3.org/Graphics/SVG/1.1/DTD/svg11.dtd">
<svg version="1.1" xmlns="http://www.w3.org/2000/svg" xmlns:xlink="http://www.w3.org/1999/xlink" width="32" height="32" viewBox="0 0 32 32">
	<path d="M9.293 2.915c-4.944 2.542-8.013 7.554-8.013 13.115 0 1.014 0.128 2.043 0.354 3.069l12.718-11.581c-1.357-1.234-4.922-4.477-5.059-4.603zM22.069 2.602c-1.922-0.874-3.963-1.322-6.070-1.322-1.494 0-2.968 0.248-4.4 0.706l10.469 9.522v-8.906zM24.307 3.899v16.989h5.576c0.549-1.571 0.835-3.205 0.835-4.858 0.002-4.851-2.437-9.395-6.411-12.131zM2.339 21.485c1.078 2.71 2.973 5.042 5.389 6.694v-11.6l-3.27 2.978c-1.117 1.016-2.050 1.866-2.118 1.928zM9.968 29.478c1.496 0.675 3.061 1.093 4.672 1.242h2.702c4.83-0.451 9.163-3.31 11.518-7.592h-18.893v6.35z" fill="#000000"></path>
</svg>