<?xml version="1.0" encoding="utf-8"?>
<!DOCTYPE svg PUBLIC "-//W3C//DTD SVG 1.1//EN" "http://www.w3.org/Graphics/SVG/1.1/DTD/svg11.dtd">
<svg version="1.1" xmlns="http://www.w3.org/2000/svg" xmlns:xlink="http://www.w3.org/1999/xlink" width="32" height="32" viewBox="0 0 32 32">
	<path d="M16 0.64c-8.483 0-15.36 6.877-15.36 15.36s6.877 15.36 15.36 15.36 15.36-6.877 15.36-15.36-6.877-15.36-15.36-15.36zM17.050 19.642c-0.984-0.077-1.397-0.565-2.168-1.034-0.426 2.227-0.942 4.362-2.48 5.475-0.474-3.365 0.698-5.891 1.24-8.573-0.926-1.558 0.112-4.698 2.066-3.925 2.405 0.952-2.083 5.798 0.93 6.405 3.146 0.632 4.429-5.458 2.478-7.437-2.818-2.859-8.202-0.066-7.539 4.029 0.162 1.002 1.194 1.304 0.413 2.686-1.803-0.4-2.342-1.822-2.272-3.718 0.112-3.106 2.789-5.278 5.474-5.581 3.397-0.379 6.584 1.246 7.026 4.442 0.494 3.608-1.534 7.512-5.166 7.23z" fill="#000000"></path>
</svg>