<?xml version="1.0" encoding="utf-8"?>
<!DOCTYPE svg PUBLIC "-//W3C//DTD SVG 1.1//EN" "http://www.w3.org/Graphics/SVG/1.1/DTD/svg11.dtd">
<svg version="1.1" xmlns="http://www.w3.org/2000/svg" xmlns:xlink="http://www.w3.org/1999/xlink" width="32" height="32" viewBox="0 0 32 32">
	<path d="M2.238 16c0 0.446 0.446 0.766 0.446 0.766l11.941 7.918c0.915 0.613 1.667 0.163 1.667-0.998v-15.374c0-1.162-0.752-1.61-1.667-1l-11.941 7.92c0.002 0.002-0.446 0.322-0.446 0.768zM16.76 16c0 0.446 0.446 0.766 0.446 0.766l11.525 7.918c0.917 0.613 1.667 0.163 1.667-0.998v-15.374c0-1.162-0.75-1.61-1.667-1l-11.525 7.92c0 0.002-0.446 0.322-0.446 0.768z" fill="#000000"></path>
</svg>