<?xml version="1.0" encoding="utf-8"?>
<!DOCTYPE svg PUBLIC "-//W3C//DTD SVG 1.1//EN" "http://www.w3.org/Graphics/SVG/1.1/DTD/svg11.dtd">
<svg version="1.1" xmlns="http://www.w3.org/2000/svg" xmlns:xlink="http://www.w3.org/1999/xlink" width="32" height="32" viewBox="0 0 32 32">
	<path d="M2.4 11.203h27.2c0.912 0 0.763-0.973 0.309-1.131s-5.509-2.069-6.389-2.069h-1.44v-4.8h-12.16v4.8h-1.44c-0.88 0-5.934 1.91-6.389 2.069s-0.605 1.131 0.309 1.131zM29.92 12.963h-27.84c-0.88 0-1.76 1.040-1.76 1.92v5.6c0 0.88 0.88 1.92 1.76 1.92h3.171l-1.411 8h24.32l-1.411-8h3.171c0.88 0 1.76-1.040 1.76-1.92v-5.6c0-0.88-0.88-1.92-1.76-1.92zM7.040 27.203l2.24-10.4h13.44l2.238 10.4h-17.918z" fill="#000000"></path>
</svg>