<?xml version="1.0" encoding="utf-8"?>
<!DOCTYPE svg PUBLIC "-//W3C//DTD SVG 1.1//EN" "http://www.w3.org/Graphics/SVG/1.1/DTD/svg11.dtd">
<svg version="1.1" xmlns="http://www.w3.org/2000/svg" xmlns:xlink="http://www.w3.org/1999/xlink" width="32" height="32" viewBox="0 0 32 32">
	<path d="M28.8 1.6h-25.6c-1.76 0-3.2 1.44-3.2 3.2v19.2c0 1.76 1.44 3.168 3.2 3.168h6.368v-3.136h-6.4v-14.752h25.664v14.752h-6.4v3.138h6.368c1.762 0 3.2-1.41 3.2-3.168v-19.202c0-1.76-1.438-3.2-3.2-3.2zM4.162 6.928c-0.664 0-1.2-0.523-1.2-1.168s0.536-1.168 1.2-1.168c0.662 0 1.2 0.523 1.2 1.168s-0.538 1.168-1.2 1.168zM7.362 6.928c-0.664 0-1.2-0.523-1.2-1.168s0.536-1.168 1.2-1.168c0.662 0 1.2 0.523 1.2 1.168s-0.538 1.168-1.2 1.168zM28.834 6.752h-19.266v-1.984h19.264v1.984zM15.917 13.078l-7.763 7.715h4.8v9.606h5.926v-9.606h4.8l-7.763-7.715z" fill="#000000"></path>
</svg>