<?xml version="1.0" encoding="utf-8"?>
<!DOCTYPE svg PUBLIC "-//W3C//DTD SVG 1.1//EN" "http://www.w3.org/Graphics/SVG/1.1/DTD/svg11.dtd">
<svg version="1.1" xmlns="http://www.w3.org/2000/svg" xmlns:xlink="http://www.w3.org/1999/xlink" width="32" height="32" viewBox="0 0 32 32">
	<path d="M27.208 20.832c-1.246-0.878-2.802-0.816-3.686 0.44s-7.069 9.013-17.2 5.792c0.381 0.333 0.784 0.65 1.206 0.947 6.646 4.68 15.827 3.086 20.509-3.562 0.883-1.256 0.416-2.741-0.829-3.618zM7.656 19.84c-0.646-1.394-4.27-10.629 3.584-17.792-0.48 0.165-0.954 0.354-1.422 0.571-7.378 3.416-10.587 12.165-7.171 19.542 0.645 1.395 2.165 1.734 3.547 1.094 1.382-0.642 2.107-2.021 1.462-3.416zM17.322 1.315c-1.53-0.138-2.582 1.008-2.72 2.526-0.136 1.518 0.696 2.834 2.226 2.971 1.531 0.138 11.339 1.616 13.616 12.002 0.099-0.498 0.17-1.003 0.218-1.518 0.728-8.096-5.243-15.251-13.339-15.981zM11.026 16.846c-0.421 0.994-0.49 1.941-0.15 2.117 0.234 0.122 0.598-0.157 0.941-0.666 0.136 0.557 0.472 1.058 0.952 1.461-0.502 0.186-0.832 0.49-0.832 0.834 0 0.565 0.89 1.022 1.986 1.022 0.989 0 1.808-0.371 1.96-0.859 0.040 0 0.197 0 0.235 0 0.154 0.488 0.971 0.859 1.962 0.859 1.098 0 1.986-0.458 1.986-1.022 0-0.344-0.328-0.646-0.832-0.834 0.478-0.403 0.816-0.904 0.95-1.461 0.344 0.509 0.707 0.787 0.942 0.666 0.339-0.176 0.272-1.123-0.152-2.117-0.331-0.778-0.781-1.354-1.123-1.482 0.005-0.048 0.008-0.099 0.008-0.15 0-0.301-0.085-0.579-0.229-0.806 0.003-0.018 0.003-0.035 0.003-0.053 0-0.139-0.034-0.269-0.090-0.381-0.086-2.026-1.406-3.637-3.542-3.637s-3.458 1.611-3.544 3.637c-0.056 0.114-0.090 0.243-0.090 0.382 0 0.018 0 0.035 0.002 0.053-0.141 0.226-0.226 0.504-0.226 0.806 0 0.051 0.003 0.101 0.006 0.15-0.341 0.128-0.792 0.702-1.123 1.48z" fill="#000000"></path>
</svg>