<?xml version="1.0" encoding="utf-8"?>
<!DOCTYPE svg PUBLIC "-//W3C//DTD SVG 1.1//EN" "http://www.w3.org/Graphics/SVG/1.1/DTD/svg11.dtd">
<svg version="1.1" xmlns="http://www.w3.org/2000/svg" xmlns:xlink="http://www.w3.org/1999/xlink" width="32" height="32" viewBox="0 0 32 32">
	<path d="M25.498 14.362c3.762-1.112 5.966-5.098 4.382-5.178-4.066-0.206-7.542-2.176-9.885-3.648-0.248-0.163-0.501-0.318-0.762-0.464v9.16c0 3.029-1.832 5.442-3.909 6.445-3.016 1.456-6.376 0.542-7.506-2.042s0.4-5.859 3.416-7.314c1.669-0.805 3.44-0.883 4.883-0.357v-7.106c-0.912-0.218-1.861-0.339-2.838-0.339-6.805 0-12.322 5.587-12.322 12.48s5.517 12.48 12.322 12.48c6.806 0 12.322-5.587 12.322-12.48 0-0.555-0.035-1.102-0.104-1.638z" fill="#000000"></path>
</svg>