<?xml version="1.0" encoding="utf-8"?>
<!DOCTYPE svg PUBLIC "-//W3C//DTD SVG 1.1//EN" "http://www.w3.org/Graphics/SVG/1.1/DTD/svg11.dtd">
<svg version="1.1" xmlns="http://www.w3.org/2000/svg" xmlns:xlink="http://www.w3.org/1999/xlink" width="32" height="32" viewBox="0 0 32 32">
	<path d="M16 0.64c-8.483 0-15.36 6.877-15.36 15.36s6.877 15.36 15.36 15.36 15.36-6.877 15.36-15.36-6.877-15.36-15.36-15.36zM21.445 15.173c0.035 0.27 0.054 0.547 0.054 0.827 0 3.483-2.787 6.306-6.227 6.306-3.437 0-6.226-2.824-6.226-6.306s2.787-6.304 6.226-6.304c0.494 0 0.973 0.061 1.434 0.17v3.59c-0.728-0.266-1.622-0.226-2.466 0.179-1.523 0.736-2.298 2.39-1.726 3.698 0.571 1.304 2.269 1.766 3.792 1.032 1.050-0.506 1.976-1.726 1.976-3.256v-4.629c0.131 0.074 0.258 0.152 0.382 0.234 1.184 0.744 2.941 1.738 4.995 1.842 0.802 0.042-0.314 2.056-2.214 2.618z" fill="#000000"></path>
</svg>