<?xml version="1.0" encoding="utf-8"?>
<!DOCTYPE svg PUBLIC "-//W3C//DTD SVG 1.1//EN" "http://www.w3.org/Graphics/SVG/1.1/DTD/svg11.dtd">
<svg version="1.1" xmlns="http://www.w3.org/2000/svg" xmlns:xlink="http://www.w3.org/1999/xlink" width="32" height="32" viewBox="0 0 32 32">
	<path d="M13.549 1.384c-6.962 1.168-12.269 7.219-12.269 14.514 0 3.626 1.314 6.942 3.486 9.506 5.154-2.494 8.755-8.136 8.782-14.704v-9.315zM16.002 19.613c-0.917 3.797-3.656 7.042-7.069 9.198 2.098 1.15 4.506 1.805 7.067 1.805 2.563 0 4.97-0.654 7.069-1.806-3.413-2.157-6.15-5.4-7.067-9.197zM18.454 10.629c0 6.598 3.61 12.27 8.779 14.774 2.173-2.566 3.486-5.882 3.486-9.506 0-7.293-5.304-13.344-12.266-14.512v9.243z" fill="#000000"></path>
</svg>