<?xml version="1.0" encoding="utf-8"?>
<!DOCTYPE svg PUBLIC "-//W3C//DTD SVG 1.1//EN" "http://www.w3.org/Graphics/SVG/1.1/DTD/svg11.dtd">
<svg version="1.1" xmlns="http://www.w3.org/2000/svg" xmlns:xlink="http://www.w3.org/1999/xlink" width="32" height="32" viewBox="0 0 32 32">
	<path d="M24 20.8c-1.101 0-2.109 0.373-2.918 0.995l-8.35-5.010c0.040-0.256 0.069-0.518 0.069-0.786 0-0.269-0.029-0.53-0.069-0.786l8.35-5.010c0.81 0.622 1.818 0.995 2.918 0.995 2.65 0 4.8-2.149 4.8-4.8s-2.15-4.8-4.8-4.8-4.8 2.149-4.8 4.8c0 0.267 0.029 0.53 0.070 0.786l-8.35 5.011c-0.81-0.624-1.819-0.997-2.92-0.997-2.651 0-4.8 2.149-4.8 4.8 0 2.65 2.149 4.8 4.8 4.8 1.101 0 2.11-0.373 2.92-0.995l8.35 5.010c-0.042 0.256-0.070 0.517-0.070 0.786 0 2.65 2.15 4.8 4.8 4.8s4.8-2.15 4.8-4.8-2.15-4.8-4.8-4.8z" fill="#000000"></path>
</svg>