<?xml version="1.0" encoding="utf-8"?>
<!DOCTYPE svg PUBLIC "-//W3C//DTD SVG 1.1//EN" "http://www.w3.org/Graphics/SVG/1.1/DTD/svg11.dtd">
<svg version="1.1" xmlns="http://www.w3.org/2000/svg" xmlns:xlink="http://www.w3.org/1999/xlink" width="32" height="32" viewBox="0 0 32 32">
	<path d="M10.88 16c0 2.827 2.293 5.12 5.12 5.12s5.12-2.294 5.12-5.12c0-2.827-2.293-5.12-5.12-5.12s-5.12 2.293-5.12 5.12zM7.246 14.080c0.878-4.026 4.464-7.040 8.754-7.040 2.475 0 4.714 1.003 6.334 2.624 0.75 0.75 1.966 0.75 2.717 0 0.749-0.75 0.749-1.966 0-2.715-2.317-2.315-5.517-3.749-9.051-3.749-5.731 0-10.582 3.766-12.213 8.96h-3.787v3.84h5.12c1.598 0 1.99-1.301 2.126-1.92zM26.88 16c-1.597 0-1.99 1.301-2.126 1.92-0.878 4.026-4.462 7.040-8.754 7.040-2.474 0-4.714-1.002-6.334-2.624-0.75-0.75-1.966-0.75-2.715 0s-0.75 1.966 0 2.715c2.315 2.315 5.515 3.749 9.050 3.749 5.731 0 10.582-3.766 12.213-8.96h3.787v-3.84h-5.12z" fill="#000000"></path>
</svg>