<?xml version="1.0" encoding="utf-8"?>
<!DOCTYPE svg PUBLIC "-//W3C//DTD SVG 1.1//EN" "http://www.w3.org/Graphics/SVG/1.1/DTD/svg11.dtd">
<svg version="1.1" xmlns="http://www.w3.org/2000/svg" xmlns:xlink="http://www.w3.org/1999/xlink" width="32" height="32" viewBox="0 0 32 32">
	<path d="M16 22.4c-1.75 0-3.166 1.434-3.166 3.2s1.416 3.2 3.166 3.2c1.749 0 3.166-1.434 3.166-3.2s-1.418-3.2-3.166-3.2zM9.28 18.813l2.24 2.262c2.474-2.499 6.485-2.499 8.96 0l2.24-2.262c-3.712-3.75-9.73-3.75-13.44 0zM4.8 14.286l2.238 2.262c4.949-4.998 12.971-4.998 17.92 0l2.242-2.262c-6.186-6.248-16.214-6.248-22.4 0zM0.32 9.762l2.24 2.262c7.424-7.498 19.458-7.498 26.88 0l2.24-2.262c-8.659-8.749-22.701-8.749-31.36 0z" fill="#000000"></path>
</svg>