<?xml version="1.0" encoding="utf-8"?>
<!DOCTYPE svg PUBLIC "-//W3C//DTD SVG 1.1//EN" "http://www.w3.org/Graphics/SVG/1.1/DTD/svg11.dtd">
<svg version="1.1" xmlns="http://www.w3.org/2000/svg" xmlns:xlink="http://www.w3.org/1999/xlink" width="32" height="32" viewBox="0 0 32 32">
	<path d="M23.806 16.109c-0.438-0.133-0.741-0.226-0.509-0.813 0.498-1.275 0.549-2.374 0.010-3.16-1.013-1.472-3.781-1.394-6.955-0.038 0-0.002-0.997 0.443-0.742-0.363 0.488-1.597 0.414-2.934-0.346-3.707-1.722-1.754-6.301 0.069-10.23 4.064-2.941 2.994-4.648 6.166-4.648 8.91 0 5.248 6.611 8.758 13.080 8.758 8.48 0 14.12-5.334 14.12-9.315 0-2.406-1.99-3.771-3.779-4.336zM13.483 27.408c-5.162 0.51-9.616-1.834-9.952-5.242-0.334-3.406 3.578-6.584 8.739-7.098 5.163-0.514 9.618 1.832 9.952 5.238s-3.578 6.587-8.739 7.101zM32.227 11.835c-0.003-5.299-4.301-9.595-9.6-9.595-0.619 0-1.12 0.501-1.12 1.12s0.501 1.118 1.12 1.118c4.064 0 7.36 3.296 7.36 7.362 0 0.619 0.501 1.12 1.12 1.12s1.12-0.501 1.12-1.12c0 0 0-0.003 0-0.005zM27.776 11.672c-0.512-2.499-2.483-4.469-4.981-4.981-0.605-0.123-1.198 0.266-1.322 0.872-0.125 0.605 0.266 1.197 0.87 1.322 1.626 0.333 2.906 1.613 3.237 3.237 0.125 0.606 0.717 0.995 1.323 0.872 0.605-0.125 0.997-0.717 0.872-1.322zM10.835 18.405c-2.078 0.418-3.482 2.162-3.133 3.894 0.347 1.733 2.315 2.798 4.395 2.379 2.078-0.418 3.482-2.162 3.133-3.894-0.347-1.731-2.315-2.797-4.395-2.379z" fill="#000000"></path>
</svg>