<?xml version="1.0" encoding="utf-8"?>
<!DOCTYPE svg PUBLIC "-//W3C//DTD SVG 1.1//EN" "http://www.w3.org/Graphics/SVG/1.1/DTD/svg11.dtd">
<svg version="1.1" xmlns="http://www.w3.org/2000/svg" xmlns:xlink="http://www.w3.org/1999/xlink" width="32" height="32" viewBox="0 0 32 32">
	<path d="M29.874 19.261c0.213-0.998 0.325-2.035 0.325-3.101 0-7.978-6.286-14.446-14.042-14.446-0.818 0-1.621 0.074-2.4 0.211-1.258-0.813-2.741-1.285-4.334-1.285-4.496 0-8.142 3.752-8.142 8.379 0 1.546 0.41 2.994 1.12 4.237-0.186 0.938-0.285 1.909-0.285 2.904 0 7.978 6.288 14.446 14.042 14.446 0.878 0 1.739-0.083 2.571-0.242 1.146 0.634 2.456 0.994 3.848 0.994 4.499 0 8.144-3.75 8.144-8.378 0-1.336-0.306-2.6-0.846-3.72zM23.358 23.066c-0.65 0.946-1.61 1.696-2.853 2.227-1.232 0.526-2.706 0.794-4.387 0.794-2.018 0-3.707-0.365-5.027-1.086-0.944-0.523-1.722-1.234-2.312-2.109-0.597-0.886-0.899-1.765-0.899-2.611 0-0.53 0.197-0.989 0.586-1.365 0.386-0.371 0.878-0.562 1.466-0.562 0.482 0 0.899 0.149 1.237 0.442 0.323 0.283 0.6 0.701 0.822 1.237 0.25 0.587 0.52 1.082 0.806 1.472 0.275 0.374 0.672 0.691 1.178 0.938 0.509 0.246 1.195 0.373 2.040 0.373 1.16 0 2.112-0.254 2.827-0.758 0.701-0.493 1.040-1.082 1.040-1.803 0-0.57-0.178-1.019-0.542-1.37-0.382-0.366-0.888-0.653-1.499-0.85-0.638-0.205-1.506-0.426-2.576-0.656-1.458-0.322-2.696-0.702-3.68-1.133-1.005-0.438-1.818-1.050-2.411-1.814-0.603-0.774-0.909-1.75-0.909-2.896 0-1.091 0.32-2.075 0.954-2.923 0.629-0.842 1.544-1.498 2.725-1.947 1.166-0.443 2.554-0.669 4.122-0.669 1.254 0 2.357 0.15 3.277 0.443 0.925 0.298 1.706 0.698 2.318 1.19 0.618 0.498 1.077 1.029 1.366 1.578 0.291 0.558 0.438 1.112 0.438 1.648 0 0.517-0.194 0.986-0.576 1.395-0.384 0.411-0.87 0.619-1.442 0.619-0.518 0-0.926-0.131-1.21-0.387-0.262-0.238-0.536-0.613-0.837-1.147-0.35-0.686-0.774-1.226-1.259-1.605-0.474-0.37-1.261-0.558-2.346-0.558-1.006 0-1.826 0.208-2.434 0.619-0.587 0.397-0.87 0.85-0.87 1.386 0 0.33 0.091 0.605 0.28 0.84 0.2 0.251 0.48 0.472 0.837 0.654 0.368 0.19 0.749 0.342 1.13 0.451 0.39 0.11 1.045 0.275 1.944 0.49 1.136 0.251 2.179 0.533 3.102 0.835 0.936 0.307 1.744 0.688 2.403 1.128 0.672 0.451 1.205 1.030 1.582 1.72 0.378 0.694 0.57 1.55 0.57 2.544 0.002 1.194-0.328 2.277-0.981 3.227z" fill="#000000"></path>
</svg>