<?xml version="1.0" encoding="utf-8"?>
<!DOCTYPE svg PUBLIC "-//W3C//DTD SVG 1.1//EN" "http://www.w3.org/Graphics/SVG/1.1/DTD/svg11.dtd">
<svg version="1.1" xmlns="http://www.w3.org/2000/svg" xmlns:xlink="http://www.w3.org/1999/xlink" width="32" height="32" viewBox="0 0 32 32">
	<path d="M19.462 15.765c-0.368-0.246-0.822-0.459-1.344-0.634-0.518-0.17-1.102-0.328-1.739-0.467-0.502-0.12-0.869-0.213-1.088-0.275-0.213-0.061-0.426-0.146-0.632-0.253-0.2-0.102-0.358-0.226-0.469-0.366-0.106-0.133-0.157-0.285-0.157-0.47 0-0.301 0.16-0.555 0.488-0.776 0.341-0.23 0.8-0.346 1.363-0.346 0.606 0 1.048 0.104 1.314 0.31 0.272 0.214 0.51 0.515 0.704 0.899 0.171 0.301 0.322 0.509 0.472 0.643 0.157 0.144 0.384 0.218 0.675 0.218 0.322 0 0.594-0.117 0.81-0.347 0.213-0.23 0.322-0.493 0.322-0.781 0-0.301-0.085-0.611-0.246-0.923-0.16-0.307-0.419-0.606-0.763-0.885-0.344-0.275-0.781-0.499-1.299-0.666-0.515-0.166-1.133-0.248-1.835-0.248-0.878 0-1.654 0.125-2.307 0.373-0.664 0.253-1.178 0.619-1.53 1.091-0.354 0.475-0.533 1.027-0.533 1.638 0 0.64 0.171 1.187 0.509 1.621 0.333 0.43 0.787 0.771 1.35 1.019 0.552 0.24 1.245 0.454 2.061 0.634 0.6 0.128 1.086 0.251 1.443 0.366 0.342 0.109 0.627 0.27 0.838 0.477 0.203 0.197 0.302 0.446 0.302 0.766 0 0.403-0.19 0.733-0.582 1.010-0.4 0.282-0.933 0.424-1.584 0.424-0.472 0-0.858-0.070-1.142-0.21-0.283-0.138-0.506-0.314-0.659-0.523-0.16-0.219-0.312-0.496-0.451-0.826-0.125-0.301-0.28-0.534-0.461-0.693-0.19-0.165-0.422-0.248-0.693-0.248-0.33 0-0.605 0.106-0.821 0.314-0.218 0.211-0.328 0.467-0.328 0.765 0 0.474 0.17 0.966 0.502 1.461 0.331 0.493 0.766 0.89 1.296 1.182 0.739 0.403 1.686 0.608 2.814 0.608 0.941 0 1.766-0.15 2.458-0.443 0.698-0.299 1.234-0.718 1.597-1.246 0.366-0.533 0.55-1.141 0.55-1.806 0-0.558-0.106-1.035-0.318-1.426-0.211-0.386-0.509-0.71-0.886-0.962zM16 0.64c-8.483 0-15.36 6.877-15.36 15.36s6.877 15.36 15.36 15.36c8.485 0 15.36-6.877 15.36-15.36s-6.875-15.36-15.36-15.36zM19.682 24.602c-0.778 0-1.512-0.202-2.155-0.557-0.467 0.090-0.947 0.136-1.44 0.136-4.342 0-7.864-3.624-7.864-8.091 0-0.558 0.054-1.101 0.16-1.627-0.398-0.696-0.627-1.506-0.627-2.371 0-2.59 2.042-4.693 4.56-4.693 0.893 0 1.723 0.264 2.427 0.72 0.435-0.078 0.885-0.118 1.344-0.118 4.342 0 7.864 3.624 7.864 8.091 0 0.595-0.062 1.176-0.181 1.736 0.302 0.629 0.472 1.334 0.472 2.085-0.002 2.589-2.042 4.69-4.56 4.69z" fill="#000000"></path>
</svg>