<?xml version="1.0" encoding="utf-8"?>
<!DOCTYPE svg PUBLIC "-//W3C//DTD SVG 1.1//EN" "http://www.w3.org/Graphics/SVG/1.1/DTD/svg11.dtd">
<svg version="1.1" xmlns="http://www.w3.org/2000/svg" xmlns:xlink="http://www.w3.org/1999/xlink" width="32" height="32" viewBox="0 0 32 32">
	<path d="M14.31 18.101c-3.997-1.509-7.354-4.203-7.576-7.714-0.142-2.238 0.422-4.195 1.878-5.84l-5.946 1.419c-1.195 0.286-1.931 1.486-1.646 2.682l4.947 20.685c0.286 1.195 1.485 1.931 2.68 1.645l2.546-0.608c-0.987-0.328-2.696-0.952-4.333-1.826l2.373-5.382c0 0 2.792 2.488 6.803 2.488 4.010 0 5.794-4.707-1.726-7.549zM30.978 23.352l-4.944-20.685c-0.286-1.195-1.486-1.931-2.682-1.645l-4.259 1.019c1.086 0.171 3.235 0.642 5.606 1.885l-1.854 5.142c0 0-1.544-1.725-5.685-1.934-3.934-0.198-6.125 4.058 1.552 6.568 5.877 1.922 7.757 5.626 7.659 9.051-0.051 1.781-0.675 3.23-1.397 4.322l4.36-1.042c1.194-0.286 1.93-1.486 1.643-2.682z" fill="#000000"></path>
</svg>