<?xml version="1.0" encoding="utf-8"?>
<!DOCTYPE svg PUBLIC "-//W3C//DTD SVG 1.1//EN" "http://www.w3.org/Graphics/SVG/1.1/DTD/svg11.dtd">
<svg version="1.1" xmlns="http://www.w3.org/2000/svg" xmlns:xlink="http://www.w3.org/1999/xlink" width="32" height="32" viewBox="0 0 32 32">
	<path d="M7.037 8.418c-1.795 1.79-9.645 12.982-2.862 19.762 6.778 6.781 17.968-1.067 19.765-2.864 1.795-1.79-0.534-7.032-5.203-11.699-4.667-4.669-9.902-6.998-11.699-5.198zM21.858 23.76c-0.53 0.526-4.632-0.731-8.581-4.682-3.947-3.954-5.208-8.054-4.678-8.584 0.525-0.53 4.632 0.731 8.576 4.683 3.952 3.947 5.213 8.053 4.683 8.582zM22.099 11.15c0.41 0 0.819-0.157 1.131-0.469l3.048-3.050c0.626-0.626 0.626-1.637 0-2.262s-1.638-0.626-2.262 0l-3.048 3.050c-0.626 0.624-0.626 1.637 0 2.262 0.31 0.312 0.722 0.469 1.131 0.469zM16.338 7.192c0.248 0.139 0.515 0.205 0.781 0.205 0.56 0 1.102-0.296 1.397-0.819l1.73-3.088c0.432-0.771 0.157-1.747-0.614-2.178s-1.746-0.157-2.178 0.614l-1.73 3.088c-0.43 0.77-0.157 1.746 0.614 2.178zM30.334 12.016c-0.434-0.771-1.408-1.045-2.178-0.614l-3.088 1.73c-0.77 0.432-1.045 1.406-0.614 2.178 0.294 0.523 0.837 0.819 1.397 0.819 0.266 0 0.534-0.067 0.781-0.205l3.088-1.73c0.771-0.432 1.046-1.408 0.614-2.178z" fill="#000000"></path>
</svg>