<?xml version="1.0" encoding="utf-8"?>
<!DOCTYPE svg PUBLIC "-//W3C//DTD SVG 1.1//EN" "http://www.w3.org/Graphics/SVG/1.1/DTD/svg11.dtd">
<svg version="1.1" xmlns="http://www.w3.org/2000/svg" xmlns:xlink="http://www.w3.org/1999/xlink" width="32" height="32" viewBox="0 0 32 32">
	<path d="M16 1.92c-7.776 0-14.080 6.304-14.080 14.080 0 3.555 1.317 6.802 3.491 9.278 2.202-2.202 5.219-3.438 8.683-3.326 4.418 0.142 7.904 2.235 9.904 5.637 3.674-2.541 6.082-6.782 6.082-11.589 0-7.776-6.306-14.080-14.080-14.080zM22.885 21.019c-0.248 0.411-0.779 0.538-1.187 0.29-3.261-1.992-7.363-2.442-12.195-1.339-0.464 0.107-0.93-0.184-1.034-0.651-0.107-0.464 0.182-0.928 0.65-1.034 5.286-1.208 9.822-0.686 13.48 1.546 0.406 0.25 0.536 0.781 0.286 1.189zM24.581 17.026c-0.312 0.509-0.978 0.667-1.486 0.354-3.728-2.291-9.418-2.955-13.83-1.616-0.573 0.173-1.178-0.15-1.35-0.72-0.173-0.573 0.15-1.178 0.72-1.35 5.042-1.531 11.309-0.79 15.594 1.843 0.509 0.315 0.67 0.978 0.354 1.49zM24.728 12.888c-4.472-2.659-11.853-2.901-16.123-1.606-0.685 0.21-1.41-0.179-1.621-0.864-0.206-0.686 0.181-1.413 0.867-1.619 4.904-1.49 13.053-1.202 18.202 1.856 0.618 0.366 0.821 1.163 0.454 1.779s-1.16 0.818-1.779 0.454zM14.003 26.162c-1.981-0.064-3.63 0.709-4.834 2.154 2.022 1.123 4.35 1.765 6.83 1.765 1.195 0 2.357-0.149 3.464-0.43-1.062-2.179-2.914-3.406-5.461-3.488z" fill="#000000"></path>
</svg>