<?xml version="1.0" encoding="utf-8"?>
<!DOCTYPE svg PUBLIC "-//W3C//DTD SVG 1.1//EN" "http://www.w3.org/Graphics/SVG/1.1/DTD/svg11.dtd">
<svg version="1.1" xmlns="http://www.w3.org/2000/svg" xmlns:xlink="http://www.w3.org/1999/xlink" width="32" height="32" viewBox="0 0 32 32">
	<path d="M1.104 18.131l2.181 0.541 1.642-2.579-3.12-0.773c-0.781-0.195-1.57 0.278-1.763 1.056-0.194 0.774 0.282 1.562 1.061 1.755zM29.57 18.547l-7.141 6.429-8.397-6.498c-0.16-0.125-0.344-0.213-0.541-0.262l-1.118-0.275-1.642 2.578 1.758 0.434 9.117 7.053c0.264 0.206 0.578 0.306 0.893 0.306 0.35 0 0.701-0.125 0.976-0.374l8.043-7.24c0.597-0.538 0.642-1.453 0.104-2.046-0.536-0.594-1.456-0.64-2.053-0.102zM13.894 11.49l7.819 5.006c0.659 0.421 1.536 0.246 1.982-0.395l8.045-11.587c0.456-0.659 0.291-1.56-0.37-2.016s-1.566-0.29-2.024 0.368l-7.245 10.435-7.867-5.037c-0.325-0.208-0.72-0.278-1.099-0.195s-0.707 0.312-0.914 0.638l-11.995 18.83c-0.432 0.675-0.23 1.568 0.448 1.997 0.242 0.154 0.512 0.226 0.779 0.226 0.482 0 0.952-0.237 1.229-0.672l11.211-17.598z" fill="#000000"></path>
</svg>