<?xml version="1.0" encoding="utf-8"?>
<!DOCTYPE svg PUBLIC "-//W3C//DTD SVG 1.1//EN" "http://www.w3.org/Graphics/SVG/1.1/DTD/svg11.dtd">
<svg version="1.1" xmlns="http://www.w3.org/2000/svg" xmlns:xlink="http://www.w3.org/1999/xlink" width="32" height="32" viewBox="0 0 32 32">
	<path d="M17.683 12.896l2.182 1.054 3.294-1.054v-1.912c0-3.939-3.211-7.144-7.16-7.144-3.947 0-7.158 3.205-7.158 7.144v10.032c0 0.925-0.755 1.678-1.682 1.678s-1.682-0.754-1.682-1.678v-4.2h-5.478v4.2c0 3.939 3.211 7.144 7.16 7.144s7.16-3.205 7.16-7.144v-10.032c0-0.925 0.755-1.678 1.682-1.678 0.928 0 1.683 0.754 1.683 1.678v1.912zM26.523 16.816v4.2c0 0.925-0.755 1.678-1.682 1.678-0.928 0-1.683-0.754-1.683-1.678v-4.285l-3.294 1.054-2.182-1.054v4.285c0 3.939 3.211 7.144 7.16 7.144 3.947 0 7.158-3.205 7.158-7.144v-4.2h-5.477z" fill="#000000"></path>
</svg>