<?xml version="1.0" encoding="utf-8"?>
<!DOCTYPE svg PUBLIC "-//W3C//DTD SVG 1.1//EN" "http://www.w3.org/Graphics/SVG/1.1/DTD/svg11.dtd">
<svg version="1.1" xmlns="http://www.w3.org/2000/svg" xmlns:xlink="http://www.w3.org/1999/xlink" width="32" height="32" viewBox="0 0 32 32">
	<path d="M16 0.64c-8.483 0-15.36 6.877-15.36 15.36s6.877 15.36 15.36 15.36 15.36-6.877 15.36-15.36-6.877-15.36-15.36-15.36zM16 12.456c-0.469 0-0.85 0.381-0.85 0.848v5.069c0 1.989-1.622 3.61-3.618 3.61-1.994 0-3.618-1.621-3.618-3.61v-2.122h2.766v2.122c0 0.467 0.381 0.846 0.85 0.846s0.85-0.379 0.85-0.846v-5.069c0.002-1.99 1.626-3.608 3.619-3.608s3.618 1.619 3.618 3.61v0.966l-1.664 0.533-1.102-0.533v-0.968c-0.002-0.467-0.382-0.848-0.851-0.848zM24.085 18.373c0 1.989-1.624 3.61-3.618 3.61-1.995 0-3.618-1.621-3.618-3.61v-2.165l1.102 0.533 1.664-0.533v2.166c0 0.467 0.381 0.846 0.85 0.846s0.848-0.379 0.848-0.846v-2.122h2.768v2.12z" fill="#000000"></path>
</svg>