<?xml version="1.0" encoding="utf-8"?>
<!DOCTYPE svg PUBLIC "-//W3C//DTD SVG 1.1//EN" "http://www.w3.org/Graphics/SVG/1.1/DTD/svg11.dtd">
<svg version="1.1" xmlns="http://www.w3.org/2000/svg" xmlns:xlink="http://www.w3.org/1999/xlink" width="32" height="32" viewBox="0 0 32 32">
	<path d="M28.8 6.4h-1.6v24h1.6c1.76 0 3.2-1.44 3.2-3.2v-17.6c0-1.76-1.44-3.2-3.2-3.2zM0 9.6v17.6c0 1.76 1.44 3.2 3.2 3.2h1.6v-24h-1.6c-1.76 0-3.2 1.44-3.2 3.2zM21.44 3.051c-1.090-0.507-2.829-1.451-5.44-1.451s-4.35 0.944-5.44 1.451v3.349h-3.52v24h17.92v-24h-3.52v-3.349zM19.52 6.4h-7.040v-2.136c0.853-0.368 2.077-0.744 3.52-0.744s2.666 0.374 3.52 0.742v2.138z" fill="#000000"></path>
</svg>