<?xml version="1.0" encoding="utf-8"?>
<!DOCTYPE svg PUBLIC "-//W3C//DTD SVG 1.1//EN" "http://www.w3.org/Graphics/SVG/1.1/DTD/svg11.dtd">
<svg version="1.1" xmlns="http://www.w3.org/2000/svg" xmlns:xlink="http://www.w3.org/1999/xlink" width="32" height="32" viewBox="0 0 32 32">
	<path d="M16 10.88c-2.838 0-5.12 2.28-5.12 5.12s2.28 5.12 5.12 5.12 5.12-2.28 5.12-5.12-2.282-5.12-5.12-5.12zM16 19.282c-1.813 0-3.28-1.469-3.28-3.28 0-1.813 1.467-3.28 3.28-3.28s3.28 1.467 3.28 3.28c0 1.811-1.467 3.28-3.28 3.28zM6.4 14.72c-0.883 0-1.6 0.573-1.6 1.28s0.717 1.28 1.6 1.28 1.568-0.573 1.568-1.28-0.685-1.28-1.568-1.28zM23.851 8.149c-0.499-0.499-1.411-0.398-2.035 0.226-0.626 0.626-0.726 1.536-0.227 2.037s1.411 0.398 2.035-0.226c0.626-0.624 0.728-1.536 0.227-2.037zM25.6 14.72c-0.885 0-1.568 0.573-1.568 1.28s0.685 1.28 1.568 1.28 1.6-0.573 1.6-1.28-0.715-1.28-1.6-1.28zM16 24c-0.706 0-1.28 0.717-1.28 1.6 0 0.885 0.573 1.6 1.28 1.6s1.28-0.715 1.28-1.6c0-0.883-0.574-1.6-1.28-1.6zM8.374 21.974c-0.624 0.626-0.726 1.538-0.227 2.037s1.413 0.397 2.037-0.227c0.626-0.626 0.726-1.538 0.227-2.037-0.499-0.498-1.411-0.397-2.037 0.227zM8.069 8.229c-0.501 0.501-0.398 1.411 0.227 2.037 0.626 0.624 1.536 0.726 2.037 0.226s0.398-1.411-0.227-2.035c-0.624-0.626-1.538-0.726-2.037-0.227zM21.896 23.706c0.626 0.624 1.536 0.725 2.035 0.226s0.398-1.411-0.226-2.035c-0.626-0.626-1.538-0.726-2.037-0.227s-0.398 1.413 0.227 2.037zM16 8c0.706 0 1.28-0.717 1.28-1.6s-0.574-1.6-1.28-1.6-1.28 0.717-1.28 1.6 0.574 1.6 1.28 1.6z" fill="#000000"></path>
</svg>