<?xml version="1.0" encoding="utf-8"?>
<!DOCTYPE svg PUBLIC "-//W3C//DTD SVG 1.1//EN" "http://www.w3.org/Graphics/SVG/1.1/DTD/svg11.dtd">
<svg version="1.1" xmlns="http://www.w3.org/2000/svg" xmlns:xlink="http://www.w3.org/1999/xlink" width="32" height="32" viewBox="0 0 32 32">
	<path d="M30.4 14.72c-0.291 0-1.278 0-1.568 0-0.883 0-1.6 0.573-1.6 1.28s0.717 1.28 1.6 1.28c0.291 0 1.278 0 1.568 0 0.885 0 1.6-0.573 1.6-1.28s-0.715-1.28-1.6-1.28zM16 7.2c-4.88 0-8.8 3.92-8.8 8.8 0 4.882 3.92 8.8 8.8 8.8 4.882 0 8.8-3.918 8.8-8.8 0-4.88-3.918-8.8-8.8-8.8zM16 22.4c-3.536 0-6.4-2.864-6.4-6.4 0-3.534 2.864-6.4 6.4-6.4s6.4 2.866 6.4 6.4c0 3.536-2.864 6.4-6.4 6.4zM4.766 16c0-0.707-0.683-1.28-1.566-1.28-0.296 0-1.306 0-1.6 0-0.883 0-1.6 0.573-1.6 1.28s0.717 1.28 1.6 1.28c0.294 0 1.304 0 1.6 0 0.883 0 1.566-0.573 1.566-1.28zM16 4.8c0.706 0 1.28-0.717 1.28-1.6 0-0.293 0-1.307 0-1.6 0-0.883-0.573-1.6-1.28-1.6s-1.28 0.717-1.28 1.6c0 0.293 0 1.307 0 1.6 0 0.883 0.574 1.6 1.28 1.6zM16 27.2c-0.706 0-1.28 0.717-1.28 1.6 0 0.293 0 1.307 0 1.6 0 0.885 0.573 1.6 1.28 1.6s1.28-0.715 1.28-1.6c0-0.293 0-1.307 0-1.6 0-0.883-0.574-1.6-1.28-1.6zM27.784 6.026c0.626-0.626 0.726-1.538 0.227-2.037s-1.411-0.398-2.035 0.227c-0.171 0.173-0.947 0.947-1.12 1.12-0.626 0.626-0.726 1.536-0.227 2.035s1.413 0.4 2.037-0.226c0.171-0.173 0.947-0.947 1.118-1.12zM5.334 24.854c-0.173 0.173-0.947 0.949-1.12 1.12-0.624 0.626-0.725 1.536-0.226 2.035s1.411 0.398 2.035-0.226c0.173-0.171 0.949-0.947 1.12-1.12 0.626-0.626 0.726-1.536 0.226-2.035s-1.411-0.397-2.035 0.226zM6.026 4.214c-0.626-0.624-1.536-0.726-2.037-0.226s-0.398 1.411 0.226 2.037c0.173 0.173 0.947 0.947 1.12 1.12 0.626 0.624 1.536 0.726 2.035 0.226s0.4-1.411-0.226-2.035c-0.171-0.173-0.946-0.949-1.118-1.122zM24.854 26.666c0.173 0.173 0.949 0.949 1.12 1.12 0.626 0.624 1.538 0.725 2.037 0.226s0.397-1.411-0.227-2.035c-0.173-0.171-0.949-0.947-1.12-1.12-0.626-0.624-1.538-0.725-2.037-0.226s-0.395 1.41 0.227 2.035z" fill="#000000"></path>
</svg>