<?xml version="1.0" encoding="utf-8"?>
<!DOCTYPE svg PUBLIC "-//W3C//DTD SVG 1.1//EN" "http://www.w3.org/Graphics/SVG/1.1/DTD/svg11.dtd">
<svg version="1.1" xmlns="http://www.w3.org/2000/svg" xmlns:xlink="http://www.w3.org/1999/xlink" width="32" height="32" viewBox="0 0 32 32">
	<path d="M30.866 0.65c-0.173-0.504-0.718-0.77-1.218-0.595s-0.762 0.726-0.587 1.232c1.472 4.272-1.45 7.462-3.675 9.17l-0.901-1.302c-0.301-0.435-0.979-0.798-1.504-0.806l-5.048 0.024c-0.525-0.008-1.306 0.235-1.738 0.539l-14.874 10.541c-0.72 0.51-0.898 1.515-0.392 2.245l6.762 9.771c0.504 0.73 1.315 0.642 2.035 0.133l14.874-10.542c0.432-0.304 0.923-0.966 1.098-1.469l1.581-5.034c0.171-0.502 0.067-1.27-0.234-1.706l-0.55-0.794c2.99-2.312 6.094-6.403 4.371-11.406zM23.946 15.619c-1.154 0.818-2.742 0.533-3.55-0.634-0.806-1.166-0.526-2.774 0.627-3.592 0.915-0.65 2.104-0.602 2.96 0.029-0.432 0.262-0.726 0.413-0.782 0.44-0.477 0.227-0.682 0.803-0.456 1.286 0.163 0.35 0.506 0.557 0.866 0.557 0.136 0 0.275-0.030 0.406-0.093 0.306-0.146 0.637-0.323 0.981-0.53 0.154 0.949-0.221 1.947-1.051 2.536z" fill="#000000"></path>
</svg>