<?xml version="1.0" encoding="utf-8"?>
<!DOCTYPE svg PUBLIC "-//W3C//DTD SVG 1.1//EN" "http://www.w3.org/Graphics/SVG/1.1/DTD/svg11.dtd">
<svg version="1.1" xmlns="http://www.w3.org/2000/svg" xmlns:xlink="http://www.w3.org/1999/xlink" width="32" height="32" viewBox="0 0 32 32">
	<path d="M20.162 15.787v-14.187c0-0.883-0.717-1.6-1.6-1.6h-5.442c-0.885 0-1.28 0.717-1.28 1.6v14.187c-2.67 1.47-4.48 4.31-4.48 7.573 0 4.771 3.869 8.64 8.64 8.64s8.64-3.869 8.64-8.64c0-3.262-1.81-6.102-4.478-7.573zM16 28.8c-3.005 0-5.44-2.435-5.44-5.44 0-2.486 1.67-4.576 3.949-5.227v-11.733h3.2v11.797c2.166 0.717 3.733 2.757 3.733 5.163-0.002 3.005-2.437 5.44-5.442 5.44z" fill="#000000"></path>
</svg>