<?xml version="1.0" encoding="utf-8"?>
<!DOCTYPE svg PUBLIC "-//W3C//DTD SVG 1.1//EN" "http://www.w3.org/Graphics/SVG/1.1/DTD/svg11.dtd">
<svg version="1.1" xmlns="http://www.w3.org/2000/svg" xmlns:xlink="http://www.w3.org/1999/xlink" width="32" height="32" viewBox="0 0 32 32">
	<path d="M10.165 20.221c0.21 0.568-5.664 5.814-2.237 10.066 0.803 0.995 3.522-4.76 7.384-7.366 2.13-1.437 7.088-4.498 7.088-6.187v-10.944c0-2.035-7.861-4.189-13.837-4.189-2.19 0-5.363 13.72-5.363 15.901 0 2.187 6.754 2.149 6.965 2.72zM24 20.067c1.053 0 4.8-0.638 4.8-4.995v-7.755c0-4.355-3.747-4.835-4.8-4.835-1.051 0 1.6 0.917 1.6 3.614v10.197c0 2.829-2.651 3.774-1.6 3.774z" fill="#000000"></path>
</svg>