<?xml version="1.0" encoding="utf-8"?>
<!DOCTYPE svg PUBLIC "-//W3C//DTD SVG 1.1//EN" "http://www.w3.org/Graphics/SVG/1.1/DTD/svg11.dtd">
<svg version="1.1" xmlns="http://www.w3.org/2000/svg" xmlns:xlink="http://www.w3.org/1999/xlink" width="32" height="32" viewBox="0 0 32 32">
	<path d="M24.341 12.222c-0.44 0-0.874 0.038-1.294 0.109-1.050-3.432-4.301-5.933-8.154-5.933-4.701 0-8.51 3.725-8.51 8.32 0 0.41 0.032 0.813 0.091 1.208-0.226-0.026-0.453-0.043-0.686-0.043-3.195 0-5.787 2.534-5.787 5.658 0 3.125 2.592 5.658 5.787 5.658h18.554c4.232 0 7.659-3.354 7.659-7.488s-3.429-7.488-7.659-7.488zM18.195 19.12c-0.792 1.126-4.184 4.622-4.328 4.77-0.166 0.205-0.626 0.549-1.061 0.266-0.125-0.082-0.275-0.245-0.275-0.566 0-0.309 0.141-0.624 0.158-0.659l1.653-3.658c-0.31-0.123-0.843-0.339-1.258-0.52l-0.11-0.048c-0.419-0.176-0.941-0.398-0.941-0.973 0-0.274 0.131-0.594 0.398-0.974 0.792-1.126 4.184-4.621 4.328-4.77 0.166-0.205 0.624-0.549 1.061-0.267 0.125 0.082 0.275 0.245 0.275 0.566 0 0.309-0.141 0.624-0.158 0.659l-1.653 3.658c0.31 0.125 0.843 0.341 1.258 0.52l0.109 0.046c0.419 0.178 0.941 0.4 0.941 0.974 0.002 0.277-0.13 0.595-0.397 0.976z" fill="#000000"></path>
</svg>