<?xml version="1.0" encoding="utf-8"?>
<!DOCTYPE svg PUBLIC "-//W3C//DTD SVG 1.1//EN" "http://www.w3.org/Graphics/SVG/1.1/DTD/svg11.dtd">
<svg version="1.1" xmlns="http://www.w3.org/2000/svg" xmlns:xlink="http://www.w3.org/1999/xlink" width="32" height="32" viewBox="0 0 32 32">
	<path d="M7.85 18.467l5.683 5.683 10.427-10.427-5.685-5.683-10.426 10.427zM30.568 10.662l-2.419-2.418c-0.462 0.25-0.987 0.394-1.55 0.394-1.787 0-3.237-1.45-3.237-3.238 0-0.562 0.141-1.090 0.394-1.55l-2.419-2.418c-0.632-0.63-1.659-0.63-2.291 0l-17.613 17.614c-0.63 0.63-0.63 1.661 0 2.291l2.419 2.419c0.461-0.251 0.989-0.394 1.549-0.394 1.789 0 3.238 1.448 3.238 3.237 0 0.562-0.142 1.090-0.395 1.55l2.418 2.419c0.63 0.63 1.661 0.63 2.291 0l17.616-17.616c0.629-0.63 0.629-1.661 0-2.291zM13.533 26.75l-8.282-8.283 13.027-13.026 8.282 8.282-13.027 13.027z" fill="#000000"></path>
</svg>