<?xml version="1.0" encoding="utf-8"?>
<!DOCTYPE svg PUBLIC "-//W3C//DTD SVG 1.1//EN" "http://www.w3.org/Graphics/SVG/1.1/DTD/svg11.dtd">
<svg version="1.1" xmlns="http://www.w3.org/2000/svg" xmlns:xlink="http://www.w3.org/1999/xlink" width="32" height="32" viewBox="0 0 32 32">
	<path d="M5.422 12.659l1.763 15.534c0.094 0.738 3.656 3.163 8.814 3.166 5.158-0.003 8.722-2.429 8.816-3.166l1.763-15.534c-2.694 1.507-6.722 2.221-10.579 2.221s-7.885-0.714-10.578-2.221zM21.067 3.059l-1.374-1.525c-0.53-0.754-1.106-0.894-2.227-0.894h-2.931c-1.12 0-1.696 0.141-2.227 0.894l-1.373 1.525c-4.112 0.718-7.094 2.624-7.094 4.029v0.274c0 2.474 5.443 4.48 12.16 4.48s12.16-2.006 12.16-4.48v-0.274c0-1.405-2.981-3.31-7.093-4.029zM19.31 6.622l-2.003-2.142h-2.614l-2.003 2.142h-2.72c0 0 2.979-3.552 3.378-4.034 0.304-0.368 0.616-0.509 1.019-0.509h3.269c0.403 0 0.714 0.141 1.019 0.509 0.397 0.482 3.378 4.034 3.378 4.034h-2.722z" fill="#000000"></path>
</svg>