<?xml version="1.0" encoding="utf-8"?>
<!DOCTYPE svg PUBLIC "-//W3C//DTD SVG 1.1//EN" "http://www.w3.org/Graphics/SVG/1.1/DTD/svg11.dtd">
<svg version="1.1" xmlns="http://www.w3.org/2000/svg" xmlns:xlink="http://www.w3.org/1999/xlink" width="32" height="32" viewBox="0 0 32 32">
	<path d="M24.96 29.114c-1.242 0.592-2.368 1.010-3.374 1.248-1.008 0.237-2.099 0.358-3.269 0.358-1.33 0-2.504-0.171-3.528-0.51-1.021-0.341-1.891-0.826-2.614-1.451-0.722-0.632-1.222-1.299-1.501-2.008-0.28-0.709-0.419-1.736-0.419-3.082v-10.326h-3.214v-4.166c1.142-0.376 2.123-0.912 2.936-1.614 0.816-0.701 1.469-1.544 1.963-2.528 0.493-0.984 0.83-2.234 1.018-3.754h4.136v7.442h6.904v4.621h-6.904v7.55c0 1.706 0.090 2.802 0.27 3.288 0.176 0.483 0.509 0.87 0.994 1.16 0.646 0.39 1.381 0.586 2.21 0.586 1.474 0 2.938-0.485 4.394-1.453v4.64z" fill="#000000"></path>
</svg>