<?xml version="1.0" encoding="utf-8"?>
<!DOCTYPE svg PUBLIC "-//W3C//DTD SVG 1.1//EN" "http://www.w3.org/Graphics/SVG/1.1/DTD/svg11.dtd">
<svg version="1.1" xmlns="http://www.w3.org/2000/svg" xmlns:xlink="http://www.w3.org/1999/xlink" width="32" height="32" viewBox="0 0 32 32">
	<path d="M16 0.64c-8.483 0-15.36 6.877-15.36 15.36s6.877 15.36 15.36 15.36c8.483 0 15.358-6.877 15.358-15.36s-6.874-15.36-15.358-15.36zM20.122 22.627c-0.629 0.299-1.197 0.509-1.702 0.63-0.509 0.12-1.062 0.181-1.653 0.181-0.672 0-1.266-0.086-1.782-0.258-0.515-0.171-0.957-0.418-1.322-0.734s-0.618-0.656-0.758-1.014-0.211-0.877-0.211-1.557v-5.218h-1.624v-2.104c0.576-0.19 1.072-0.462 1.483-0.818 0.411-0.354 0.742-0.779 0.99-1.277 0.25-0.496 0.422-1.13 0.515-1.896h2.090v3.762h3.486v2.334h-3.486v3.814c0 0.862 0.045 1.416 0.136 1.661s0.258 0.44 0.502 0.586c0.326 0.197 0.699 0.298 1.117 0.298 0.744 0 1.485-0.245 2.219-0.736v2.346z" fill="#000000"></path>
</svg>