<?xml version="1.0" encoding="utf-8"?>
<!DOCTYPE svg PUBLIC "-//W3C//DTD SVG 1.1//EN" "http://www.w3.org/Graphics/SVG/1.1/DTD/svg11.dtd">
<svg version="1.1" xmlns="http://www.w3.org/2000/svg" xmlns:xlink="http://www.w3.org/1999/xlink" width="32" height="32" viewBox="0 0 32 32">
	<path d="M16 0.64c-8.483 0-15.36 6.877-15.36 15.36s6.877 15.36 15.36 15.36 15.36-6.877 15.36-15.36-6.877-15.36-15.36-15.36zM22.246 13.224c0.006 0.13 0.010 0.261 0.010 0.392 0 3.997-3.043 8.606-8.608 8.606-1.707 0-3.299-0.499-4.637-1.36 0.237 0.029 0.478 0.042 0.722 0.042 1.418 0 2.722-0.483 3.758-1.296-1.323-0.024-2.442-0.899-2.827-2.099 0.184 0.035 0.374 0.054 0.568 0.054 0.277 0 0.544-0.037 0.797-0.106-1.382-0.278-2.427-1.501-2.427-2.966 0-0.013 0-0.026 0.002-0.037 0.408 0.226 0.875 0.362 1.37 0.378-0.81-0.542-1.344-1.467-1.344-2.518 0-0.555 0.149-1.075 0.41-1.522 1.491 1.832 3.722 3.037 6.235 3.162-0.051-0.221-0.078-0.451-0.078-0.69 0-1.67 1.355-3.026 3.026-3.026 0.87 0 1.656 0.366 2.208 0.955 0.69-0.134 1.338-0.386 1.922-0.733-0.227 0.706-0.706 1.299-1.331 1.674 0.613-0.074 1.195-0.235 1.738-0.477-0.405 0.606-0.92 1.139-1.51 1.566z" fill="#000000"></path>
</svg>