<?xml version="1.0" encoding="utf-8"?>
<!DOCTYPE svg PUBLIC "-//W3C//DTD SVG 1.1//EN" "http://www.w3.org/Graphics/SVG/1.1/DTD/svg11.dtd">
<svg version="1.1" xmlns="http://www.w3.org/2000/svg" xmlns:xlink="http://www.w3.org/1999/xlink" width="32" height="32" viewBox="0 0 32 32">
	<path d="M28.8 3.2h-25.6c-1.76 0-3.2 1.44-3.2 3.2v19.2c0 1.76 1.44 3.2 3.2 3.2h25.6c1.762 0 3.2-1.44 3.2-3.2v-19.2c0-1.76-1.438-3.2-3.2-3.2zM28.8 25.6h-25.6v-19.2h25.6v19.2zM14.4 19.36h-8v2.88h8v-2.88zM14.4 14.56h-8v2.88h8v-2.88zM14.4 9.76h-8v2.88h8v-2.88zM25.44 20c0 0-2.72-0.71-2.72-2.109 0-1.331 1.762-1.891 1.762-4.611 0-2.208-0.672-3.52-2.882-3.52s-2.88 1.31-2.88 3.52c0 2.72 1.76 3.28 1.76 4.611 0 1.398-2.718 2.109-2.718 2.109-0.162 0-0.162 2.24-0.162 2.24h8c0 0 0-2.24-0.16-2.24z" fill="#000000"></path>
</svg>