<?xml version="1.0" encoding="utf-8"?>
<!DOCTYPE svg PUBLIC "-//W3C//DTD SVG 1.1//EN" "http://www.w3.org/Graphics/SVG/1.1/DTD/svg11.dtd">
<svg version="1.1" xmlns="http://www.w3.org/2000/svg" xmlns:xlink="http://www.w3.org/1999/xlink" width="32" height="32" viewBox="0 0 32 32">
	<path d="M31.68 8v-1.92c0-0.707-0.574-1.28-1.28-1.28h-28.8c-0.707 0-1.28 0.573-1.28 1.28v1.92h3.2v3.2h-3.2v3.2h3.2v3.2h-3.2v3.2h3.2v3.2h-3.2v1.92c0 0.707 0.573 1.28 1.28 1.28h28.8c0.706 0 1.28-0.573 1.28-1.28v-1.92h-3.2v-3.2h3.2v-3.2h-3.2v-3.2h3.2v-3.2h-3.2v-3.2h3.2zM12.48 20.8v-9.6l8 4.8-8 4.8z" fill="#000000"></path>
</svg>