<?xml version="1.0" encoding="utf-8"?>
<!DOCTYPE svg PUBLIC "-//W3C//DTD SVG 1.1//EN" "http://www.w3.org/Graphics/SVG/1.1/DTD/svg11.dtd">
<svg version="1.1" xmlns="http://www.w3.org/2000/svg" xmlns:xlink="http://www.w3.org/1999/xlink" width="32" height="32" viewBox="0 0 32 32">
	<path d="M16 0.64c-8.483 0-15.36 6.877-15.36 15.36s6.877 15.36 15.36 15.36 15.36-6.877 15.36-15.36-6.877-15.36-15.36-15.36zM23.040 13.042c-0.813 4.667-5.357 8.618-6.722 9.52-1.366 0.901-2.613-0.363-3.066-1.317-0.517-1.090-2.069-6.998-2.475-7.486-0.406-0.491-1.624 0.488-1.624 0.488l-0.59-0.79c0 0 2.475-3.011 4.358-3.386 1.997-0.4 1.994 3.122 2.474 5.078 0.466 1.893 0.778 2.974 1.182 2.974 0.406 0 1.182-1.054 2.032-2.672 0.851-1.621-0.035-3.050-1.699-2.034 0.662-4.062 6.944-5.042 6.13-0.376z" fill="#000000"></path>
</svg>