<?xml version="1.0" encoding="utf-8"?>
<!DOCTYPE svg PUBLIC "-//W3C//DTD SVG 1.1//EN" "http://www.w3.org/Graphics/SVG/1.1/DTD/svg11.dtd">
<svg version="1.1" xmlns="http://www.w3.org/2000/svg" xmlns:xlink="http://www.w3.org/1999/xlink" width="32" height="32" viewBox="0 0 32 32">
	<path d="M17.656 17.57c-0.493-0.286-1.176-0.286-1.733-0.286h-1.826v3.763h1.677c0.621 0 1.411 0.043 1.946-0.331 0.493-0.331 0.77-0.979 0.77-1.597 0-0.574-0.342-1.261-0.834-1.549zM16.966 14.358c0.406-0.309 0.619-0.862 0.619-1.37 0-0.552-0.256-1.082-0.725-1.368-0.493-0.286-1.39-0.221-1.968-0.221h-0.795v3.312h1.051c0.6-0.002 1.306 0.043 1.818-0.354zM25.96 0.64h-19.922c-2.981 0-5.398 2.418-5.398 5.4v19.918c0 2.982 2.418 5.4 5.398 5.4h19.92c2.982 0 5.4-2.418 5.4-5.4v-19.918c0.002-2.982-2.416-5.4-5.398-5.4zM16.834 23.851h-6.275v-15.147h6.856c1.986 0 3.819 1.264 3.819 3.494 0 1.722-0.962 2.901-2.187 3.269v0.043c1.819 0.374 3.117 1.363 3.117 3.746 0 2.205-1.502 4.595-5.33 4.595z" fill="#000000"></path>
</svg>