<?xml version="1.0" encoding="utf-8"?>
<!DOCTYPE svg PUBLIC "-//W3C//DTD SVG 1.1//EN" "http://www.w3.org/Graphics/SVG/1.1/DTD/svg11.dtd">
<svg version="1.1" xmlns="http://www.w3.org/2000/svg" xmlns:xlink="http://www.w3.org/1999/xlink" width="32" height="32" viewBox="0 0 32 32">
	<path d="M24.64 9.282c-4.066 0-7.362 3.296-7.362 7.36 0 1.544 0.477 2.976 1.29 4.16h-5.136c0.811-1.184 1.288-2.618 1.288-4.162 0-4.064-3.296-7.36-7.36-7.36s-7.36 3.296-7.36 7.36 3.296 7.36 7.36 7.36h17.28c4.064 0 7.36-3.296 7.36-7.36s-3.296-7.358-7.36-7.358zM3.2 16.64c0-2.298 1.862-4.16 4.16-4.16s4.16 1.862 4.16 4.16c0 2.299-1.862 4.16-4.16 4.16s-4.16-1.861-4.16-4.16zM24.64 20.8c-2.299 0-4.162-1.861-4.162-4.16 0-2.298 1.862-4.16 4.162-4.16 2.298 0 4.16 1.862 4.16 4.16 0 2.299-1.862 4.16-4.16 4.16z" fill="#000000"></path>
</svg>